<?xml version="1.0" encoding="UTF-8" standalone="no"?>
<svg
   version="1.1"
   id="Layer_1"
   x="0px"
   y="0px"
   width="100%"
   viewBox="0 0 1024 1024"
   enable-background="new 0 0 1024 1024"
   xml:space="preserve"
   sodipodi:docname="file.svg"
   inkscape:version="1.3.2 (091e20e, 2023-11-25, custom)"
   xmlns:inkscape="http://www.inkscape.org/namespaces/inkscape"
   xmlns:sodipodi="http://sodipodi.sourceforge.net/DTD/sodipodi-0.dtd"
   xmlns:xlink="http://www.w3.org/1999/xlink"
   xmlns="http://www.w3.org/2000/svg"
   xmlns:svg="http://www.w3.org/2000/svg"><defs
   id="defs527"><linearGradient
     id="linearGradient530"
     inkscape:collect="always"><stop
       style="stop-color:#6717be;stop-opacity:1;"
       offset="0.17106499"
       id="stop530" /><stop
       style="stop-color:#bd47f7;stop-opacity:1;"
       offset="1"
       id="stop531" /></linearGradient><linearGradient
     inkscape:collect="always"
     xlink:href="#linearGradient530"
     id="linearGradient531"
     x1="958.02979"
     y1="1171.5575"
     x2="452.80273"
     y2="54.760754"
     gradientUnits="userSpaceOnUse"
     gradientTransform="translate(0.6000087,-0.086045)" /><filter
     style="color-interpolation-filters:sRGB;"
     inkscape:label="Drop Shadow"
     id="filter625"
     x="-0.070424062"
     y="-0.070914065"
     width="1.1835158"
     height="1.1829836"><feFlood
       result="flood"
       in="SourceGraphic"
       flood-opacity="0.274510"
       flood-color="rgb(0,0,0)"
       id="feFlood624" /><feGaussianBlur
       result="blur"
       in="SourceGraphic"
       stdDeviation="29.787233"
       id="feGaussianBlur624" /><feOffset
       result="offset"
       in="blur"
       dx="43.313068"
       dy="41.489361"
       id="feOffset624" /><feComposite
       result="comp1"
       operator="out"
       in="flood"
       in2="offset"
       id="feComposite624" /><feComposite
       result="comp2"
       operator="atop"
       in="comp1"
       in2="SourceGraphic"
       id="feComposite625" /></filter></defs><sodipodi:namedview
   id="namedview527"
   pagecolor="#ffffff"
   bordercolor="#000000"
   borderopacity="0.25"
   inkscape:showpageshadow="2"
   inkscape:pageopacity="0.0"
   inkscape:pagecheckerboard="0"
   inkscape:deskcolor="#d1d1d1"
   showgrid="false"
   inkscape:zoom="1.7882539"
   inkscape:cx="346.14771"
   inkscape:cy="561.44152"
   inkscape:window-width="3840"
   inkscape:window-height="2094"
   inkscape:window-x="-4"
   inkscape:window-y="-4"
   inkscape:window-maximized="1"
   inkscape:current-layer="Layer_1" />









































<rect
   style="fill:#f9f9f9"
   id="rect1"
   width="792.95227"
   height="671.04565"
   x="125.82105"
   y="136.44594" /><path
   fill="#8B13F3"
   opacity="1.000000"
   stroke="none"
   d=" M206.550964,14.402340   C205.286118,15.076918 203.698853,16.104498 201.977066,16.438332   C196.879456,17.426699 191.728760,18.141247 186.141541,18.935925   C192.511887,17.418747 199.339478,15.928521 206.550964,14.402340  z"
   id="path42" />












<path
   fill="#8B13F3"
   opacity="1.000000"
   stroke="none"
   d=" M142.603607,31.982841   C140.404114,33.287094 137.836823,34.622635 134.852814,35.943619   C137.036011,34.624088 139.635895,33.319107 142.603607,31.982841  z"
   id="path55" />
<path
   fill="#9E2FF6"
   opacity="1.000000"
   stroke="none"
   d=" M14.967871,213.403351   C14.987984,215.611420 14.929386,218.212753 14.504223,220.904633   C14.388158,218.595673 14.638659,216.196152 14.967871,213.403351  z"
   id="path56" />


<path
   fill="#8B13F3"
   opacity="1.000000"
   stroke="none"
   d=" M36.633446,136.076843   C36.118488,138.152252 35.318150,140.434753 34.167747,142.835434   C34.661144,140.730377 35.504604,138.507172 36.633446,136.076843  z"
   id="path59" />
<path
   fill="#8B13F3"
   opacity="1.000000"
   stroke="none"
   d=" M55.831036,102.267166   C55.223072,103.656807 54.399170,105.290047 53.235977,106.937210   C53.802826,105.471016 54.708961,103.990891 55.831036,102.267166  z"
   id="path60" />



<path
   fill="#8B13F3"
   opacity="1.000000"
   stroke="none"
   d=" M119.625885,42.979156   C118.512428,43.926327 117.069153,44.947121 115.245377,45.942650   C116.341942,44.962517 117.819008,44.007652 119.625885,42.979156  z"
   id="path64" />
<path
   fill="#8B13F3"
   opacity="1.000000"
   stroke="none"
   d=" M129.572083,37.843037   C128.130646,38.846828 126.341171,39.905449 124.211426,40.941063   C125.655457,39.911327 127.439743,38.904594 129.572083,37.843037  z"
   id="path65" />









<path
   fill="#8B13F3"
   opacity="1.000000"
   stroke="none"
   d=" M51.576752,108.962143   C51.436771,109.839470 51.012695,110.862396 50.216560,111.903877   C50.327217,110.984200 50.809937,110.045967 51.576752,108.962143  z"
   id="path75" />
<path
   fill="#8B13F3"
   opacity="1.000000"
   stroke="none"
   d=" M49.639847,112.016808   C49.496387,112.873573 49.075970,113.885719 48.295387,114.934418   C48.411114,114.038040 48.887001,113.105118 49.639847,112.016808  z"
   id="path76" />
<path
   fill="#8B13F3"
   opacity="1.000000"
   stroke="none"
   d=" M47.719807,115.149628   C47.476791,116.192352 46.988430,117.458282 46.154255,118.834991   C46.363781,117.754784 46.919121,116.563820 47.719807,115.149628  z"
   id="path77" />

<path
   fill="#8B13F3"
   opacity="1.000000"
   stroke="none"
   d=" M45.606258,118.987030   C45.476307,119.854065 45.067051,120.873131 44.295830,121.929977   C44.398228,121.024857 44.862591,120.081955 45.606258,118.987030  z"
   id="path79" />

<path
   fill="#9E2FF6"
   opacity="1.000000"
   stroke="none"
   d=" M13.565106,226.072937   C13.801088,226.586578 13.768144,227.248886 13.444765,227.953781   C13.201615,227.404785 13.248898,226.813187 13.565106,226.072937  z"
   id="path81" />

<path
   fill="#8B13F3"
   opacity="1.000000"
   stroke="none"
   d=" M145.635345,30.842085   C145.198074,31.193739 144.426300,31.573597 143.299576,31.960789   C143.730042,31.602179 144.515427,31.236233 145.635345,30.842085  z"
   id="path83" />




<path
   fill="#8B13F3"
   opacity="1.000000"
   stroke="none"
   d=" M991.083252,139.666962   C990.773682,139.490082 990.423889,139.002441 990.076599,138.189514   C990.400391,138.361542 990.721680,138.858856 991.083252,139.666962  z"
   id="path88" />
<path
   fill="#8B13F3"
   opacity="1.000000"
   stroke="none"
   d=" M990.109131,137.641281   C989.794067,137.422241 989.434448,136.864578 989.083252,135.947479   C989.416016,136.159592 989.740234,136.731110 990.109131,137.641281  z"
   id="path89" />
<path
   fill="#8B13F3"
   opacity="1.000000"
   stroke="none"
   d=" M37.606926,133.992966   C37.731964,134.450531 37.581005,135.065582 37.135246,135.826874   C37.003944,135.365555 37.167439,134.758011 37.606926,133.992966  z"
   id="path90" />
<path
   fill="#8B13F3"
   opacity="1.000000"
   stroke="none"
   d=" M131.638107,36.842686   C131.469604,37.175598 130.984863,37.546722 130.167389,37.900459   C130.330399,37.549015 130.826126,37.214954 131.638107,36.842686  z"
   id="path91" />
<path
   fill="#8B13F3"
   opacity="1.000000"
   stroke="none"
   d=" M38.618698,131.997482   C38.729755,132.452026 38.566036,133.064636 38.103218,133.817535   C37.984055,133.357056 38.163990,132.756302 38.618698,131.997482  z"
   id="path92" />
<path
   fill="#8B13F3"
   opacity="1.000000"
   stroke="none"
   d=" M39.648022,129.897476   C39.752399,130.349243 39.590290,130.998154 39.121586,131.809448   C39.003838,131.346100 39.192688,130.720352 39.648022,129.897476  z"
   id="path93" />
<path
   fill="#8B13F3"
   opacity="1.000000"
   stroke="none"
   d=" M41.661407,126.036819   C41.754444,126.474510 41.583778,127.079597 41.119217,127.825714   C41.016117,127.379234 41.206913,126.791725 41.661407,126.036819  z"
   id="path94" />

<path
   fill="#8B13F3"
   opacity="1.000000"
   stroke="none"
   d=" M91.594254,62.761925   C91.457268,63.149776 91.006866,63.541931 90.233002,63.951962   C90.366638,63.568634 90.823738,63.167435 91.594254,62.761925  z"
   id="path96" />
<path
   fill="#8B13F3"
   opacity="1.000000"
   stroke="none"
   d=" M42.688904,124.067772   C42.769894,124.489952 42.598648,125.088951 42.139969,125.831528   C42.047253,125.398270 42.241962,124.821434 42.688904,124.067772  z"
   id="path97" />
<path
   fill="#8B13F3"
   opacity="1.000000"
   stroke="none"
   d=" M123.665268,40.901825   C123.489731,41.206310 123.007988,41.562717 122.202621,41.927277   C122.372345,41.608204 122.865707,41.280975 123.665268,40.901825  z"
   id="path98" />
<path
   fill="#8B13F3"
   opacity="1.000000"
   stroke="none"
   d=" M121.673935,41.911591   C121.500229,42.218155 121.022278,42.571808 120.225067,42.939461   C120.393784,42.621864 120.881737,42.290272 121.673935,41.911591  z"
   id="path99" />
<path
   fill="#8B13F3"
   opacity="1.000000"
   stroke="none"
   d=" M114.681519,45.918953   C114.504265,46.204037 114.036133,46.555565 113.253716,46.937988   C113.423164,46.641056 113.906898,46.313225 114.681519,45.918953  z"
   id="path100" />




<path
   fill="#8B13F3"
   opacity="1.000000"
   stroke="none"
   d=" M72.736786,80.993546   C72.731216,81.341156 72.504517,81.808182 72.123260,82.103806   C72.151016,81.659256 72.333336,81.386108 72.736786,80.993546  z"
   id="path105" />

<path
   fill="#8B13F3"
   opacity="1.000000"
   stroke="none"
   d=" M43.729729,122.116425   C43.789303,122.514885 43.614502,123.102303 43.160194,123.833763   C43.085575,123.420334 43.290466,122.862862 43.729729,122.116425  z"
   id="path107" />
<path
   fill="#8B13F3"
   opacity="1.000000"
   stroke="none"
   d=" M133.931946,35.797714   C133.712357,36.112556 133.140289,36.509380 132.207779,36.901356   C132.424713,36.557571 133.002075,36.218636 133.931946,35.797714  z"
   id="path108" />




<path
   fill="#8B13F3"
   opacity="1.000000"
   stroke="none"
   d=" M52.701035,107.077805   C52.765190,107.494560 52.580826,108.091209 52.100731,108.819611   C52.020840,108.386818 52.236679,107.822258 52.701035,107.077805  z"
   id="path113" />
<path
   fill="#8B13F3"
   opacity="1.000000"
   stroke="none"
   d=" M983.186035,123.662209   C983.018555,123.675697 982.805359,123.461952 982.755005,123.138184   C982.917908,123.028168 983.140259,123.434967 983.186035,123.662209  z"
   id="path114" />

<path
   fill="#8B13F3"
   opacity="1.000000"
   stroke="none"
   d=" M81.681183,71.928665   C81.754753,72.146248 81.562218,72.453163 81.108398,72.857971   C81.036430,72.643234 81.225754,72.330612 81.681183,71.928665  z"
   id="path116" />
<path
   fill="#8B13F3"
   opacity="1.000000"
   stroke="none"
   d=" M92.616547,61.849922   C92.722420,62.108498 92.531570,62.423203 92.067459,62.819748   C91.969406,62.569744 92.144615,62.237896 92.616547,61.849922  z"
   id="path117" />
<path
   fill="#8B13F3"
   opacity="1.000000"
   stroke="none"
   d=" M40.702019,127.941788   C40.896706,128.183990 40.753376,128.476562 40.299210,128.841721   C40.208321,128.653381 40.333534,128.345978 40.702019,127.941788  z"
   id="path118" />
<path
   fill="#8B13F3"
   opacity="1.000000"
   stroke="none"
   d=" M93.652718,60.813499   C93.742790,61.019527 93.565987,61.363449 93.119263,61.829430   C93.028168,61.618122 93.207008,61.284756 93.652718,60.813499  z"
   id="path119" />
<path
   fill="#8B13F3"
   opacity="1.000000"
   stroke="none"
   d=" M95.722824,58.999096   C95.757828,59.181770 95.540726,59.467167 95.068352,59.853653   C95.032288,59.670437 95.251495,59.386127 95.722824,58.999096  z"
   id="path120" />
<path
   fill="#8B13F3"
   opacity="1.000000"
   stroke="none"
   d=" M112.695961,47.012085   C112.720169,47.223980 112.460587,47.501846 111.913902,47.848663   C111.888596,47.637760 112.150383,47.357906 112.695961,47.012085  z"
   id="path121" />
<path
   fill="#8B13F3"
   opacity="1.000000"
   stroke="none"
   d=" M951.096008,78.689690   C950.904175,78.731598 950.582336,78.516792 950.160095,78.022003   C950.361816,77.972343 950.663940,78.202660 951.096008,78.689690  z"
   id="path122" />
<path
   fill="#8B13F3"
   opacity="1.000000"
   stroke="none"
   d=" M80.689056,72.938263   C80.758484,73.150932 80.564102,73.456047 80.108795,73.858307   C80.040337,73.647209 80.232796,73.338951 80.689056,72.938263  z"
   id="path123" />














<path
   fill="#8B13F3"
   opacity="1.000000"
   stroke="none"
   d=" M953.055298,80.707573   C952.870972,80.750359 952.561768,80.543526 952.145996,80.071716   C952.336426,80.023811 952.633423,80.240883 953.055298,80.707573  z"
   id="path138" />



<path
   fill="#8B13F3"
   opacity="1.000000"
   stroke="none"
   d=" M74.706985,78.949783   C74.750816,79.127777 74.552444,79.432327 74.099243,79.847328   C74.051201,79.663963 74.257996,79.370148 74.706985,78.949783  z"
   id="path142" />
<path
   fill="#8B13F3"
   opacity="1.000000"
   stroke="none"
   d=" M79.691582,73.944153   C79.741791,74.155640 79.521568,74.458107 79.028046,74.850281   C78.976875,74.638374 79.199013,74.336754 79.691582,73.944153  z"
   id="path143" />



<path
   fill="#8B13F3"
   opacity="1.000000"
   stroke="none"
   d=" M82.671066,70.851410   C82.743843,71.046440 82.565704,71.383438 82.122643,71.843971   C82.045197,71.642807 82.232674,71.318100 82.671066,70.851410  z"
   id="path147" />









<path
   fill="#9E2FF6"
   opacity="1.000000"
   stroke="none"
   d=" M343.662109,272.493195   C345.437103,273.187195 346.933807,274.120178 348.430511,275.053192   C348.063354,275.560364 347.696167,276.067505 347.329010,276.574677   C344.634705,276.964447 343.218689,275.805908 343.662109,272.493195  z"
   id="path157" />
<path
   fill="#9E2FF6"
   opacity="1.000000"
   stroke="none"
   d=" M365.601868,274.500732   C364.085663,274.720947 362.738007,274.603149 361.390381,274.485352   C361.708344,273.707916 362.026306,272.930450 362.344269,272.153015   C363.486328,272.822937 364.628387,273.492828 365.601868,274.500732  z"
   id="path158" />



<path
   fill="#9E2FF6"
   opacity="1.000000"
   stroke="none"
   d=" M396.139160,272.149231   C395.332275,272.131195 394.756989,271.880157 394.181732,271.629089   C394.661011,271.148346 395.140320,270.667603 395.619598,270.186859   C395.869995,270.763306 396.120392,271.339722 396.139160,272.149231  z"
   id="path162" />
<path
   fill="#9E2FF6"
   opacity="1.000000"
   stroke="none"
   d=" M317.980652,272.927399   C317.386749,272.417358 317.118134,271.905334 316.849548,271.393311   C317.598511,271.389618 318.347443,271.385925 319.096375,271.382202   C318.832916,271.896637 318.569458,272.411041 317.980652,272.927399  z"
   id="path163" />
<path
   fill="#9E2FF6"
   opacity="1.000000"
   stroke="none"
   d=" M541.833374,255.062683   C541.099609,255.756546 539.963806,256.424713 538.481262,257.143982   C539.233398,256.475708 540.332397,255.756348 541.833374,255.062683  z"
   id="path164" />
<path
   fill="#9E2FF6"
   opacity="1.000000"
   stroke="none"
   d=" M14.201832,261.205078   C14.803895,261.568878 15.106608,261.995483 15.409319,262.422089   C14.961997,262.537018 14.514677,262.651917 14.067356,262.766846   C14.012398,262.267181 13.957439,261.767517 14.201832,261.205078  z"
   id="path165" />

<path
   fill="#9E2FF6"
   opacity="1.000000"
   stroke="none"
   d=" M83.954544,267.606628   C83.712387,267.209747 83.714081,266.814941 83.744347,266.422333   C83.745193,266.411316 84.051224,266.423767 84.214958,266.425262   C84.210770,266.819824 84.206581,267.214417 83.954544,267.606628  z"
   id="path167" />

<path
   fill="#8B13F3"
   opacity="1.000000"
   stroke="none"
   d=" M643.753784,169.054153   C643.334167,169.487778 642.552551,169.910812 641.429321,170.289017   C641.855713,169.843979 642.623779,169.443771 643.753784,169.054153  z"
   id="path169" />

<path
   fill="#9E2FF6"
   opacity="1.000000"
   stroke="none"
   d=" M558.887268,240.083862   C559.058777,240.435196 558.881836,240.700531 558.378296,240.983948   C558.312073,240.732635 558.474426,240.397919 558.887268,240.083862  z"
   id="path171" />
<path
   fill="#9E2FF6"
   opacity="1.000000"
   stroke="none"
   d=" M548.734314,249.042740   C548.651917,249.424301 548.247864,249.829742 547.562012,250.301819   C547.657654,249.934509 548.035156,249.500580 548.734314,249.042740  z"
   id="path172" />
<path
   fill="#9E2FF6"
   opacity="1.000000"
   stroke="none"
   d=" M561.964661,237.219940   C562.039673,237.446838 561.840088,237.738434 561.383606,238.123199   C561.314453,237.905807 561.502258,237.595230 561.964661,237.219940  z"
   id="path173" />
<path
   fill="#8B13F3"
   opacity="1.000000"
   stroke="none"
   d=" M640.915405,170.181702   C640.997192,170.403458 640.809814,170.704224 640.332275,171.087433   C640.243530,170.866837 640.444885,170.563766 640.915405,170.181702  z"
   id="path174" />
<path
   fill="#9E2FF6"
   opacity="1.000000"
   stroke="none"
   d=" M563.142273,236.195679   C563.196899,236.436966 562.945862,236.742111 562.408936,237.139374   C562.360901,236.907501 562.598694,236.583527 563.142273,236.195679  z"
   id="path175" />
<path
   fill="#9E2FF6"
   opacity="1.000000"
   stroke="none"
   d=" M547.027588,250.311920   C547.119080,250.579742 546.921143,250.861877 546.462158,251.214294   C546.380066,250.965118 546.559082,250.645676 547.027588,250.311920  z"
   id="path176" />
<path
   fill="#9E2FF6"
   opacity="1.000000"
   stroke="none"
   d=" M550.890869,247.159195   C550.944824,247.354370 550.744019,247.644821 550.292725,248.035721   C550.240173,247.842270 550.438110,247.548370 550.890869,247.159195  z"
   id="path177" />
<path
   fill="#9E2FF6"
   opacity="1.000000"
   stroke="none"
   d=" M551.910156,246.171051   C551.968689,246.374039 551.768494,246.663757 551.316956,247.050201   C551.260925,246.850525 551.456116,246.554138 551.910156,246.171051  z"
   id="path178" />
<path
   fill="#9E2FF6"
   opacity="1.000000"
   stroke="none"
   d=" M553.047119,245.179977   C553.094360,245.399490 552.855713,245.691666 552.345093,246.077789   C552.302490,245.865372 552.531799,245.559006 553.047119,245.179977  z"
   id="path179" />
<path
   fill="#9E2FF6"
   opacity="1.000000"
   stroke="none"
   d=" M554.954590,243.243683   C555.043274,243.470596 554.841248,243.791611 554.380737,244.251862   C554.302856,244.039993 554.483459,243.688889 554.954590,243.243683  z"
   id="path180" />
<path
   fill="#9E2FF6"
   opacity="1.000000"
   stroke="none"
   d=" M555.867981,242.763336   C555.986572,242.915115 555.657837,243.187515 555.452026,243.242111   C555.413879,243.068329 555.581665,242.839935 555.867981,242.763336  z"
   id="path181" />
<path
   fill="#9E2FF6"
   opacity="1.000000"
   stroke="none"
   d=" M559.914551,239.173706   C559.973511,239.379120 559.772217,239.667755 559.317932,240.050049   C559.261414,239.848114 559.457886,239.552536 559.914551,239.173706  z"
   id="path182" />
<path
   fill="#9E2FF6"
   opacity="1.000000"
   stroke="none"
   d=" M560.942627,238.199310   C561.009521,238.417923 560.807739,238.708847 560.348633,239.089813   C560.285522,238.877106 560.479736,238.574371 560.942627,238.199310  z"
   id="path183" />
<path
   fill="#9E2FF6"
   opacity="1.000000"
   stroke="none"
   d=" M566.904663,233.131317   C566.932312,233.308090 566.712036,233.571747 566.249084,233.927429   C566.223145,233.752380 566.439880,233.485306 566.904663,233.131317  z"
   id="path184" />
<path
   fill="#9E2FF6"
   opacity="1.000000"
   stroke="none"
   d=" M568.908020,231.178452   C568.971741,231.381760 568.771790,231.681580 568.319702,232.093140   C568.259766,231.894897 568.452026,231.584930 568.908020,231.178452  z"
   id="path185" />
<path
   fill="#9E2FF6"
   opacity="1.000000"
   stroke="none"
   d=" M569.925720,230.184601   C569.990906,230.394470 569.792114,230.685928 569.340698,231.075836   C569.279358,230.871597 569.470520,230.568878 569.925720,230.184601  z"
   id="path186" />
<path
   fill="#9E2FF6"
   opacity="1.000000"
   stroke="none"
   d=" M570.940613,229.197327   C571.012146,229.416916 570.815125,229.712494 570.361145,230.101013   C570.293457,229.887070 570.482788,229.580185 570.940613,229.197327  z"
   id="path187" />
<path
   fill="#9E2FF6"
   opacity="1.000000"
   stroke="none"
   d=" M571.977234,228.234436   C572.049927,228.465591 571.844971,228.751648 571.380859,229.126205   C571.314392,228.906235 571.506958,228.597778 571.977234,228.234436  z"
   id="path188" />
<path
   fill="#9E2FF6"
   opacity="1.000000"
   stroke="none"
   d=" M573.254883,227.188690   C573.303101,227.443512 573.024475,227.758270 572.438232,228.158630   C572.396423,227.912369 572.662231,227.580505 573.254883,227.188690  z"
   id="path189" />
<path
   fill="#9E2FF6"
   opacity="1.000000"
   stroke="none"
   d=" M543.937622,253.210403   C544.011108,253.424515 543.807190,253.731049 543.349243,254.162292   C543.283508,253.958939 543.471924,253.630875 543.937622,253.210403  z"
   id="path190" />
<path
   fill="#9E2FF6"
   opacity="1.000000"
   stroke="none"
   d=" M544.968933,252.224625   C545.048889,252.457428 544.852539,252.753525 544.396240,253.139114   C544.321777,252.915039 544.507141,252.601471 544.968933,252.224625  z"
   id="path191" />
<path
   fill="#9E2FF6"
   opacity="1.000000"
   stroke="none"
   d=" M545.986938,251.247284   C546.074707,251.491730 545.881165,251.788055 545.425964,252.168930   C545.344727,251.935364 545.525146,251.617249 545.986938,251.247284  z"
   id="path192" />






















































<path
   fill="#A42FFA"
   opacity="1.000000"
   stroke="none"
   d=" M897.533752,200.391479   C897.649902,199.941437 897.933350,199.665527 898.234863,199.410980   C898.242615,199.404449 898.447815,199.631866 898.560852,199.750198   C898.275085,200.022949 897.989258,200.295685 897.533752,200.391479  z"
   id="path247" />









<path
   fill="#F2EDF8"
   opacity="1.000000"
   stroke="none"
   d=" M403.991425,564.009827   C406.543152,565.389709 409.471924,566.343872 411.586823,568.216980   C428.230499,582.957642 444.571991,598.041321 461.294342,612.690796   C479.308899,628.472351 497.775726,643.737793 515.778198,659.532776   C528.615356,670.795837 540.926880,682.655640 553.628967,694.075562   C565.096741,704.385620 576.772583,714.464355 588.363586,724.637146   C598.553833,733.580505 608.674133,742.605713 618.973999,751.421021   C627.530518,758.744324 636.064697,766.131104 645.047302,772.908447   C654.013794,779.673584 663.576477,777.761292 673.105713,773.473755   C685.976562,767.682861 699.089844,762.421387 711.878052,756.458740   C727.472778,749.187439 742.768799,741.277710 758.324280,733.919495   C770.888184,727.976501 783.577576,722.285278 796.336243,716.771423   C808.494019,711.517212 816.920837,699.136169 816.983093,685.431885   C817.055542,669.495422 816.892456,653.557434 817.025452,637.621765   C817.278625,607.292969 817.700928,576.965698 817.986938,546.637085   C818.089844,535.727783 818.002686,524.816711 818.002502,513.906433   C818.002319,501.635010 817.892578,489.362274 818.034790,477.092499   C818.164795,465.877472 818.818970,454.664948 818.789307,443.452515   C818.748047,427.828674 818.119446,412.206543 818.067505,396.582581   C818.038452,387.856201 818.846313,379.129913 818.957825,370.399506   C819.121643,357.561249 818.999878,344.719360 819.000122,331.878998   C819.000427,318.802734 818.337219,305.682312 819.202515,292.663513   C819.955139,281.339691 821.934998,270.022644 824.335754,258.910675   C825.821106,252.035355 828.364075,251.196167 834.894775,253.227264   C835.673401,254.332642 835.872375,255.142197 836.071411,255.951736   C836.048096,257.693329 836.024719,259.434937 836.007690,261.998322   C836.044556,263.867676 836.075012,264.915222 836.044067,266.305359   C836.015320,267.109589 836.047913,267.571289 836.080566,268.032959   C836.018372,268.785187 835.956177,269.537445 835.439087,270.773132   C834.991333,279.504639 834.998352,287.752686 835.005432,296.000732   C835.051941,303.701202 835.098450,311.401672 835.164185,320.027893   C835.126709,374.693237 835.042480,428.432831 835.025208,482.172455   C835.016602,508.788696 835.131409,535.404968 835.129395,562.452271   C835.105225,564.913086 835.141968,566.942932 835.108643,569.390137   C835.085327,571.214050 835.132080,572.620605 835.121582,574.490356   C835.002991,617.631958 834.941589,660.310364 834.460205,703.003784   C819.889343,701.857910 811.228943,712.639099 800.340820,718.565186   C800.048279,718.724304 800.085938,719.490173 799.585449,719.982910   C795.531555,721.489685 791.790100,722.834534 788.210876,724.523254   C784.031982,726.495117 780.069397,728.927490 775.880737,730.875793   C766.918335,735.044678 757.776062,738.834656 748.880859,743.138062   C736.113220,749.315063 723.461487,755.736206 710.836670,762.202148   C704.133972,765.635010 697.592468,769.382507 690.734436,772.992004   C690.490662,772.996033 690.003601,773.022522 689.644897,773.051086   C687.840820,774.044434 686.395447,775.009216 684.712769,775.976379   C684.475403,775.978760 684.001587,776.007324 683.680542,776.042969   C682.882690,776.705994 682.405823,777.333374 681.560730,778.004517   C673.806091,780.020264 666.419739,781.992126 658.952148,783.602783   C654.913025,782.163452 650.955261,781.085388 646.656189,779.962891   C644.542480,778.612305 642.770020,777.306152 640.847168,775.700073   C633.458130,768.803223 626.286926,762.130249 618.965942,755.625916   C605.447632,743.615784 591.828308,731.719482 578.276123,719.747314   C567.831665,710.520691 557.425598,701.250732 546.856079,691.698181   C536.137024,681.940674 525.564392,672.484985 514.749268,663.017578   C514.506714,663.005798 514.021362,662.987793 513.967285,662.653198   C508.696381,657.494019 503.564514,652.573364 498.245941,647.863525   C484.855164,636.005493 471.407990,624.210632 457.929291,612.452576   C448.698120,604.399902 439.246826,596.595398 430.131287,588.415527   C421.260742,580.455505 412.692444,572.158752 403.991425,564.009827  z"
   id="path257" />








<path
   fill="#FEFEFF"
   opacity="1.000000"
   stroke="none"
   d=" M835.079346,295.537048   C834.998352,287.752686 834.991333,279.504639 835.356750,271.141846   C835.537231,279.042542 835.345276,287.057953 835.079346,295.537048  z"
   id="path266" />














<path
   fill="#E0D9E8"
   opacity="1.000000"
   stroke="none"
   d=" M403.773163,563.900696   C412.692444,572.158752 421.260742,580.455505 430.131287,588.415527   C439.246826,596.595398 448.698120,604.399902 457.929291,612.452576   C471.407990,624.210632 484.855164,636.005493 498.245941,647.863525   C503.564514,652.573364 508.696381,657.494019 513.597046,662.653381   C511.526306,662.125244 509.518433,661.566467 508.058411,660.350037   C498.769104,652.611145 489.546906,644.789124 480.406036,636.875061   C469.167480,627.144775 458.083496,617.235779 446.834961,607.517273   C433.441559,595.945679 419.885742,584.561829 406.508545,572.971741   C392.732544,561.036072 379.066895,548.972595 365.389069,536.924133   C348.340057,521.906067 331.526581,506.613129 314.238403,491.876495   C299.897278,479.651917 285.029327,468.044495 270.367004,456.198059   C264.445587,451.413879 258.562195,446.571350 252.466461,442.016388   C237.498886,430.832062 222.499023,419.686401 207.314957,408.800201   C204.246948,406.600647 200.309265,405.614105 196.772537,404.068329   C196.705704,404.272980 196.638870,404.477600 196.572037,404.682220   C200.379929,408.119019 204.187836,411.555817 207.638458,414.956970   C205.501556,415.336853 203.721924,415.752441 201.642426,416.025574   C199.604736,414.534790 197.866943,413.186493 196.099823,411.870026   C196.070511,411.901886 196.150803,411.934326 196.053391,411.675415   C195.654999,411.212250 195.354034,411.007996 194.885071,410.521881   C191.829865,407.764771 188.942642,405.289490 185.900635,402.542542   C184.520859,401.120850 183.295868,399.970856 182.048309,398.628296   C182.025742,398.435669 181.986023,398.049835 181.987549,397.674438   C181.473297,395.790619 180.957520,394.282196 180.146423,391.910004   C185.136505,391.910004 190.660797,390.272736 194.183289,392.232849   C202.935776,397.103271 210.681396,403.752960 219.023941,409.403809   C222.780472,411.948303 226.996384,413.814636 231.002243,415.994324   C231.000610,416.000000 231.011627,415.992981 231.042786,416.339905   C236.049301,420.458282 241.024643,424.229767 246.299652,428.148529   C249.691025,431.289886 252.644989,434.443726 255.899673,437.248688   C266.680450,446.539764 277.574615,455.699097 288.415802,464.920166   C300.014893,474.785980 311.609955,484.656616 323.194305,494.539734   C334.277344,503.995148 345.421234,513.381226 356.398010,522.958679   C368.634033,533.634888 380.670288,544.539856 392.886383,555.239197   C396.076233,558.032959 399.611359,560.432495 402.987885,563.013184   C403.092224,563.334290 403.281219,563.593750 403.773163,563.900696  z"
   id="path281" />
<path
   fill="#d2c7e0"
   opacity="1"
   stroke="none"
   d="m 628.00116,363.05756 c -28.05518,21.86279 -56.13733,43.6911 -84.15759,65.59863 -25.14716,19.66122 -50.09141,39.69625 -75.52528,59.52447 -3.87961,-2.67731 -7.56939,-5.75955 -10.9229,-8.89248 3.59808,-2.06388 7.18978,-3.49341 10.35574,-5.57148 10.3598,-6.80011 20.55878,-13.84494 30.83264,-20.7763 2.87152,-1.93726 5.95618,-3.59729 8.65121,-5.74985 7.09589,-5.66769 13.8747,-11.73947 21.06415,-17.28137 14.01239,-10.80121 28.48181,-21.02255 42.28192,-32.08307 19.32825,-15.4913 38.42957,-31.28336 57.22486,-47.41641 13.77466,-11.82355 27.55182,-23.75604 38.1864,-38.74665 0.86499,-1.21936 2.6358,-1.79617 3.9917,-2.27182 -1.91437,3.65745 -3.78876,6.94327 -5.76325,10.16779 -8.09094,13.21289 -18.28033,24.53275 -30.445,34.14609 -1.4372,1.13574 -1.86823,3.54461 -2.90747,5.64572 -1.0503,1.42383 -1.95874,2.56528 -2.86713,3.70673 z"
   id="path282"
   sodipodi:nodetypes="csccsssssssccscc" />

<path
   fill="#d7cde2"
   opacity="1"
   stroke="none"
   d="m 669.97797,308.99145 c -1.34986,0.87543 -3.12067,1.45224 -3.98566,2.6716 -10.63458,14.99061 -24.41174,26.9231 -38.1864,38.74665 -18.79529,16.13305 -37.89661,31.92511 -57.22486,47.41641 -13.80011,11.06052 -28.26953,21.28186 -42.28192,32.08307 -7.18945,5.5419 -13.96826,11.61368 -21.06415,17.28137 -2.69503,2.15256 -5.77969,3.81259 -8.65121,5.74985 -10.27386,6.93136 -20.47284,13.97619 -30.83264,20.7763 -3.16596,2.07807 -6.38674,3.89538 -10.15936,5.66763 -2.00476,-1.39343 -5.72422,-4.33305 -7.00166,-6.12599 5.91089,-2.65744 13.90925,-2.8701 18.61726,-6.33174 15.29669,-11.2471 29.94195,-23.37521 44.98074,-34.97924 18.72192,-14.44605 37.69556,-28.56729 56.35278,-43.09564 13.95398,-10.86594 27.85901,-21.82801 41.2782,-33.33905 15.91742,-13.65403 31.35803,-27.86896 46.81745,-42.0456 2.02868,-1.86035 2.94525,-4.9335 4.67102,-7.59927 2.4176,-1.73865 4.54107,-3.32294 6.67584,-4.46085 0.006,2.82575 1.8e-4,5.20514 -0.005,7.5845 z"
   id="path284"
   sodipodi:nodetypes="ccssssssccsssssccc" />
<path
   fill="#E0D9E8"
   opacity="1.000000"
   stroke="none"
   d=" M663.013428,306.022156   C661.581787,308.533569 660.665222,311.606720 658.636536,313.467072   C643.177124,327.643707 627.736511,341.858643 611.819092,355.512665   C598.399902,367.023712 584.494873,377.985779 570.540894,388.851715   C551.883667,403.380066 532.910034,417.501312 514.188110,431.947357   C499.149323,443.551392 484.504059,455.679504 469.207367,466.926605   C464.499359,470.388245 458.220703,471.713654 452.244720,474.035706   C451.304352,473.863770 450.780487,473.673309 450.457764,473.206116   C451.243225,472.632446 451.899719,472.426025 452.401489,472.025696   C474.169434,454.660767 495.904297,437.254364 517.684814,419.905273   C540.376526,401.830353 563.062927,383.748169 585.839539,365.780487   C609.503235,347.113007 633.271973,328.578766 657.332642,309.960388   C659.451477,308.630402 661.232422,307.326263 663.013428,306.022156  z"
   id="path285" />
<path
   fill="#F8F6FA"
   opacity="1.000000"
   stroke="none"
   d=" M656.994751,309.986267   C633.271973,328.578766 609.503235,347.113007 585.839539,365.780487   C563.062927,383.748169 540.376526,401.830353 517.684814,419.905273   C495.904297,437.254364 474.169434,454.660767 452.401489,472.025696   C451.899719,472.426025 451.243225,472.632446 450.304779,472.961365   C443.136353,467.699127 436.322113,462.404907 429.507843,457.110657   C429.722046,456.378387 429.936249,455.646149 430.150452,454.913879   C432.887817,454.913879 436.054871,454.008514 438.288940,455.068909   C448.553650,459.941040 457.659912,456.456696 466.482727,451.647919   C471.378723,448.979401 475.781494,445.391602 480.346771,442.134277   C486.001007,438.099945 491.701904,434.118988 497.191071,429.867645   C511.709595,418.623016 526.072571,407.177338 540.604431,395.950287   C547.279785,390.793060 554.333008,386.123657 560.988098,380.941803   C570.500977,373.534760 579.772522,365.818573 589.215515,358.320648   C593.090759,355.243683 597.189331,352.449249 601.102783,349.418457   C604.349854,346.903778 607.460510,344.213715 610.655945,341.631439   C621.343811,332.994415 632.309570,324.676941 642.658691,315.652100   C652.139160,307.384827 660.099426,297.742554 665.112061,285.938995   C666.027954,283.782166 667.876465,282.021362 669.648438,280.503754   C670.002014,282.249451 669.917236,283.575531 670.016602,284.887665   C670.370911,289.565521 669.848755,293.686188 666.239807,297.449280   C662.675659,301.165527 660.038574,305.770905 656.994751,309.986267  z"
   id="path286" />
<path
   fill="#F2EDF8"
   opacity="1.000000"
   stroke="none"
   d=" M402.960571,562.666687   C399.611359,560.432495 396.076233,558.032959 392.886383,555.239197   C380.670288,544.539856 368.634033,533.634888 356.398010,522.958679   C345.421234,513.381226 334.277344,503.995148 323.194305,494.539734   C311.609955,484.656616 300.014893,474.785980 288.415802,464.920166   C277.574615,455.699097 266.680450,446.539764 255.899673,437.248688   C252.644989,434.443726 249.691025,431.289886 246.159302,427.853149   C244.145218,425.608185 242.571136,423.805939 240.998962,422.001373   C241.000885,421.999084 241.009766,421.990234 241.009766,421.990234   C242.229431,422.392700 243.727615,422.471588 244.627274,423.245880   C259.947784,436.431396 275.153809,449.749817 290.467957,462.942780   C306.291351,476.574432 322.258453,490.039520 338.056946,503.699768   C347.468689,511.837677 356.659668,520.230408 365.981079,528.473389   C377.162842,538.361450 388.399139,548.187927 399.550079,558.110535   C400.876282,559.290710 401.814972,560.906372 402.960571,562.666687  z"
   id="path287" />
<path
   fill="#CABED9"
   opacity="1.000000"
   stroke="none"
   d=" M669.984009,309.391235   C669.983582,306.612091 669.989136,304.232697 670.148071,301.169495   C670.844971,300.358551 671.388489,300.231415 671.932068,300.104279   C671.709167,309.337341 671.486267,318.570435 670.960938,328.351013   C670.456970,329.202484 670.255493,329.506409 669.841675,329.971130   C669.407410,330.403076 669.185425,330.674194 668.645264,331.057678   C658.517639,338.702484 648.708313,346.234985 638.606934,353.859802   C637.886597,354.342865 637.458191,354.733582 636.724854,355.159912   C635.561401,356.274811 634.702820,357.354126 633.540405,358.575836   C632.823608,358.884003 632.410461,359.049774 631.758240,359.127075   C631.349426,359.048523 631.179749,359.058472 631.010071,359.068420   C631.907532,357.249725 632.338562,354.840851 633.775757,353.705109   C645.940430,344.091766 656.129822,332.771912 664.220764,319.559021   C666.195251,316.334503 668.069641,313.048676 669.984009,309.391235  z"
   id="path288" />
<path
   fill="#F2EDF8"
   opacity="1.000000"
   stroke="none"
   d=" M173.148819,377.019745   C173.223297,375.543579 173.297760,374.067413 173.198532,372.294556   C173.256729,371.740295 173.488632,371.482788 173.964264,371.126740   C180.218201,366.944550 183.949661,370.865753 188.189041,374.568909   C199.114258,384.112244 210.452637,393.182770 221.371475,402.733124   C228.133759,408.647858 234.430939,415.094330 240.973328,421.646179   C241.009766,421.990234 241.000885,421.999084 240.646988,421.965637   C237.199280,419.952454 234.105453,417.972717 231.011627,415.992981   C231.011627,415.992981 231.000610,416.000000 230.856415,415.695801   C217.949860,404.668640 205.260590,393.857025 192.395035,383.259430   C185.729813,377.769135 184.668365,376.873871 174.329575,382.984253   C174.208939,381.938171 174.088303,380.892120 174.170486,379.295685   C173.965149,378.170135 173.556976,377.594940 173.148819,377.019745  z"
   id="path289" />
<path
   fill="#F1EEF4"
   opacity="1.000000"
   stroke="none"
   d=" M671.960083,299.625916   C671.388489,300.231415 670.844971,300.358551 670.136719,300.723145   C667.848633,302.544861 665.725159,304.129150 663.307556,305.867798   C661.232422,307.326263 659.451477,308.630402 657.332642,309.960388   C660.038574,305.770905 662.675659,301.165527 666.239807,297.449280   C669.848755,293.686188 670.370911,289.565521 670.016602,284.887665   C669.917236,283.575531 670.002014,282.249451 670.001160,280.465485   C670.000000,275.565674 670.000000,271.130157 670.000000,266.694611   C670.662720,266.680847 671.325439,266.667084 671.988159,266.653290   C671.988159,277.484711 671.988159,288.316132 671.960083,299.625916  z"
   id="path290" />
































































<path
   fill="#d7cde2"
   opacity="1"
   stroke="none"
   d="m 188.27687,627.13574 c -1.7079,-1.47668 -3.14136,-2.81555 -4.86122,-4.32617 -1.06839,-0.99854 -1.85037,-1.82538 -3.06177,-3.06866 -1.03282,-0.66352 -1.63624,-0.91071 -2.23967,-1.15784 0.0659,-0.36469 0.13172,-0.72937 0.29268,-1.495 -0.11601,-0.60931 -0.3271,-0.81762 -0.53819,-1.026 0,0 0.0835,-0.0411 0.10914,-0.40838 2.36988,-3.55139 6.01734,-3.53345 9.51865,-0.70862 4.72826,3.81464 9.65134,7.38788 14.64444,11.35657 1.38499,1.09967 2.61638,1.90734 3.8857,3.06225 5.23724,7.79572 15.30272,10.90418 23.26191,7.51721 2.24224,-0.95416 5.22371,-2.87538 7.42357,-3.48231 -0.15671,0.65826 -0.92811,2.01741 -1.14244,2.22163 -8.02826,7.65058 -19.2643,8.4317 -28.43475,2.1969 -1.53865,-1.04602 -3.82709,-3.84027 -5.52027,0.25556 -2.73252,-1.82044 -5.15976,-3.48816 -7.71705,-5.45057 -1.37268,-1.09783 -2.61528,-1.90094 -3.8579,-2.7041 -0.49612,-0.88153 -0.99224,-1.76312 -1.76283,-2.78247 z"
   id="path355"
   sodipodi:nodetypes="cccccccsccsccscccc" />
<path
   fill="#e0d9e8"
   opacity="1"
   stroke="none"
   d="m 202.40457,626.60585 c -4.83948,-3.67682 -10.17982,-7.84614 -14.90808,-11.66078 -3.50131,-2.82483 -7.14877,-2.84277 -9.53409,0.75244 -0.8038,-0.8515 -1.56653,-2.11426 -2.56346,-3.59521 -0.23421,-0.21827 -0.29419,-0.19153 -0.312,-0.56452 -0.39746,-2.41516 -0.77711,-4.4574 -0.86697,-6.71448 0.46362,-1.39843 0.31488,-2.83445 0.7877,-3.8845 8.41997,7.02686 16.8635,14.17271 25.12546,21.36149 0.71205,1.43341 1.70038,3.1675 2.27144,4.30556 z"
   id="path356"
   sodipodi:nodetypes="csccccccc" />







<path
   fill="#E0D9E8"
   opacity="1.000000"
   stroke="none"
   d=" M177.924545,616.296021   C178.079788,616.270447 178.290878,616.478760 178.371002,616.810913   C178.240005,616.934692 177.980392,616.529907 177.924545,616.296021  z"
   id="path364" />








<path
   fill="#d2c7e0"
   opacity="1"
   stroke="none"
   d="m 690.0036,773.02258 c 0,-6e-5 0.48706,-0.0265 1.11945,-0.0315 6.83569,-2.32209 13.14935,-4.38471 19.21679,-7.01508 9.43811,-4.0918 18.71338,-8.55987 28.04932,-12.88647 9.3183,-4.31842 18.4801,-9.01868 27.98218,-12.88367 8.65576,-3.52081 17.74139,-5.96942 26.51288,-9.22632 6.05487,-2.24823 12.14325,-3.73492 18.16693,-0.91211 2.11181,0.98969 3.32837,3.88971 4.74963,6.10236 -0.76727,0.63867 -1.33044,1.09234 -2.15601,1.65259 -0.46539,0.39202 -0.66839,0.67761 -0.82916,0.93145 0.0422,-0.0317 -0.0481,-0.0864 -0.36865,-0.0712 -1.05066,0.43493 -1.78082,0.85467 -2.49542,1.2854 0.0155,0.0109 0.004,-0.0282 -0.30701,0.0208 -1.2807,0.41357 -2.25085,0.7782 -3.58673,1.09778 -0.60907,-0.0751 -0.85236,-0.10529 -1.16937,-0.51032 -1.88764,-0.65484 -3.7876,-1.4165 -5.49683,-1.11102 -3.19568,0.57111 -6.24072,1.94141 -9.42181,2.64899 -4.10742,0.91345 -8.52674,0.87286 -12.39252,2.34442 -14.62964,5.56921 -29.1178,11.51575 -43.60498,17.45257 -11.9303,4.88892 -23.7948,9.93933 -35.66858,14.96497 -7.48303,3.16724 -14.6734,7.49853 -22.46045,9.3493 -8.7392,2.07697 -18.00854,1.89154 -27.0365,2.79682 -5.78674,0.58032 -11.65301,1.05627 -16.52209,5.23614 -9.62506,-8.44873 -18.94416,-16.76031 -28.27094,-25.06347 -22.63489,-20.1507 -45.27325,-40.29743 -68.03552,-60.69251 -0.71259,-0.67718 -1.29986,-1.1076 -2.02405,-1.79449 -0.7528,-0.71552 -1.36871,-1.17456 -1.97503,-1.66761 0.01,-0.034 -0.0559,-0.008 -0.19458,-0.26178 -0.64093,-0.51641 -1.14313,-0.77874 -1.66138,-0.97656 -0.016,0.0646 0.11542,0.0438 0.036,-0.22546 -0.40003,-0.44483 -0.72064,-0.62042 -1.02393,-0.74939 0.0173,0.0466 0.0789,-0.0314 -0.0481,-0.30261 -0.75415,-0.75733 -1.38135,-1.24347 -2.08972,-1.93994 -0.27356,-0.46815 -0.53003,-0.61054 -0.99994,-0.89649 -0.65998,-0.52454 -1.1706,-0.79004 -1.66858,-1.1134 0.0126,-0.0578 -0.0263,-0.16956 -0.11359,-0.34741 -0.26434,-0.3946 -0.492,-0.51868 -0.82587,-0.55628 -0.0556,-0.006 -0.11285,0.0898 -0.1759,-0.18225 -0.38617,-0.43359 -0.70935,-0.59509 -1.05316,-0.70233 -0.0208,0.0542 0.0928,0.0303 0.0162,-0.23926 -0.40046,-0.43854 -0.72437,-0.60754 -1.06202,-0.71796 -0.0137,0.0587 0.10511,0.0393 0.0155,-0.22436 -0.40833,-0.43994 -0.72718,-0.61621 -1.05347,-0.73468 -0.008,0.0578 0.10797,0.0419 0.0139,-0.2179 -0.40192,-0.44781 -0.70978,-0.63592 -1.02643,-0.7688 -0.009,0.0552 0.10254,0.0472 0.004,-0.21331 -0.40284,-0.4646 -0.7071,-0.66877 -1.09351,-1.08118 -0.27716,-0.46112 -0.53387,-0.59888 -0.97937,-0.8457 -0.41644,-0.39722 -0.70587,-0.57025 -1.13904,-0.99842 -0.64569,-0.51928 -1.14752,-0.78344 -1.67578,-0.99255 -0.0264,0.0551 0.0898,0.0176 0.0223,-0.25379 -0.39404,-0.43115 -0.72058,-0.59081 -1.08484,-0.69824 -0.0377,0.0522 0.0841,0.0942 0.011,-0.21264 -0.39771,-0.57178 -0.72235,-0.83667 -1.23285,-1.35486 -12.18851,-11.008 -24.14496,-21.81482 -36.20728,-32.5022 -11.30344,-10.01501 -22.71896,-19.90344 -34.26208,-30.12085 -0.56266,-0.45202 -0.94834,-0.6308 -1.29279,-0.77661 0.0413,0.033 0.0839,-0.0637 -0.0749,-0.35663 -12.12375,-10.68664 -24.08874,-21.08032 -36.14276,-31.6181 -0.089,-0.14411 -0.4097,-0.25311 -0.45862,-0.26123 -0.0489,-0.008 -0.1319,-0.0624 -0.25354,-0.31555 -0.73285,-0.68854 -1.34405,-1.1239 -2.00046,-1.53443 -0.0452,0.0248 0.0382,0.0856 -0.0534,-0.17554 -0.41272,-0.42926 -0.73389,-0.59728 -1.06397,-0.70965 -0.009,0.0557 0.10251,0.038 0.01,-0.22113 -0.40192,-0.44196 -0.71112,-0.62482 -1.01874,-0.75928 0.002,0.0483 0.0776,-0.0115 -0.0878,-0.31152 -3.07769,-2.49756 -6.14694,-4.51746 -8.87335,-6.92542 -8.7521,-7.72973 -18.54577,-15.50765 -27.3532,-23.65047 -9.80417,-8.76136 -18.33491,-17.26127 -27.97062,-25.73783 -11.90344,-10.47144 -23.71237,-21.05069 -35.65332,-31.47891 -3.55301,-3.10288 -7.41275,-5.85453 -11.43021,-8.77143 -0.69564,-0.0129 -1.09311,-0.0215 -1.47604,-0.33749 -0.0521,-0.84845 0.0906,-1.63489 -0.21509,-1.89548 -16.23898,-13.84451 -32.51579,-27.64465 -48.82204,-41.61169 -0.18899,-0.33188 -0.276,-0.53138 -0.41221,-1.09183 -0.52065,-0.54917 -0.92346,-0.76734 -1.61485,-1.08832 -1.97374,-1.63718 -3.65891,-3.17148 -4.92238,-4.78088 2.80829,0.38089 5.64944,0.16354 7.50026,1.41311 6.84294,4.61988 13.30368,9.80085 20.00929,14.63034 13.37573,9.63352 26.81418,19.18003 40.23642,28.74881 3.31512,2.36338 6.66757,4.67435 10.00528,7.00843 0.002,-0.001 4.3e-4,0.004 0.037,0.35537 4.90155,10.13672 13.20373,16.61704 21.61245,23.06635 6.04474,4.63629 11.98902,9.43353 17.68021,14.49396 9.52176,8.46655 18.67566,17.34784 28.22424,25.78302 10.75132,9.49774 21.85892,18.59167 32.63193,28.06543 5.57138,4.89941 10.5686,10.453 16.15527,15.33331 8.73386,7.6297 17.75687,14.92804 26.64069,22.38654 9.77209,8.20428 19.51596,16.44207 29.29013,24.64385 6.72858,5.64618 13.62415,11.10181 20.19571,16.9242 6.80103,6.0257 13.13608,12.57928 19.96719,18.56872 13.54505,11.87629 27.35895,23.44574 40.92298,35.30079 6.00274,5.24639 11.47851,11.09942 17.52405,16.29236 14.5783,12.52221 29.38909,24.77343 44.02996,37.22351 7.36212,6.26043 14.65442,12.52416 25.52259,12.55377 3.81365,0.3269 7.20751,0.64935 10.60144,0.9718 7.38635,-1.97186 14.7727,-3.94373 22.85711,-5.98328 1.16907,-0.70288 1.64008,-1.33813 2.11109,-1.97339 0,0 0.47381,-0.0286 1.07519,-0.0562 2.04328,-0.99463 3.48505,-1.96161 4.92682,-2.92859 z"
   id="path373"
   sodipodi:nodetypes="scsssssccccccccsscsssscsccccccccccccscccccccccccccccccsccccscccccccscsscccccccsssccsssssssssssscccccs" />
<path
   fill="#DBD4E6"
   opacity="1.000000"
   stroke="none"
   d=" M207.995728,414.992645   C204.187836,411.555817 200.379929,408.119019 196.572037,404.682220   C196.638870,404.477600 196.705704,404.272980 196.772537,404.068329   C200.309265,405.614105 204.246948,406.600647 207.314957,408.800201   C222.499023,419.686401 237.498886,430.832062 252.466461,442.016388   C258.562195,446.571350 264.445587,451.413879 270.367004,456.198059   C285.029327,468.044495 299.897278,479.651917 314.238403,491.876495   C331.526581,506.613129 348.340057,521.906067 365.389069,536.924133   C379.066895,548.972595 392.732544,561.036072 406.508545,572.971741   C419.885742,584.561829 433.441559,595.945679 446.834961,607.517273   C458.083496,617.235779 469.167480,627.144775 480.406036,636.875061   C489.546906,644.789124 498.769104,652.611145 508.058411,660.350037   C509.518433,661.566467 511.526306,662.125244 513.651123,662.987915   C514.021362,662.987793 514.506714,663.005798 514.756714,663.385376   C515.473877,664.983276 515.620178,666.520142 516.461243,667.367371   C521.351379,672.293396 526.115662,677.414062 531.489380,681.769531   C536.278320,685.651062 541.802673,688.625305 547.002441,692.000000   C557.425598,701.250732 567.831665,710.520691 578.276123,719.747314   C591.828308,731.719482 605.447632,743.615784 618.965942,755.625916   C626.286926,762.130249 633.458130,768.803223 640.457764,775.700317   C634.829712,772.657410 629.080994,769.770081 624.134521,765.866394   C616.349487,759.722595 609.119141,752.877686 601.627319,746.360229   C587.007385,733.641602 572.328491,720.990479 557.752686,708.221619   C548.152527,699.811768 538.791870,691.126892 529.142456,682.774963   C513.370117,669.123352 497.408569,655.690552 481.604645,642.075134   C468.426422,630.721863 455.405090,619.186523 442.232941,607.826111   C423.685394,591.829590 405.058838,575.924744 386.474670,559.970642   C381.364960,555.584045 376.351654,551.082642 371.173401,546.779236   C366.602631,542.980652 361.769623,539.496338 357.220398,535.673401   C349.994659,529.601257 342.768890,523.515930 335.800415,517.154358   C327.741272,509.797119 319.985931,502.107849 312.031219,494.634583   C310.879639,493.552734 309.351746,492.871521 307.997986,492.004883   C307.997986,492.004883 308.000000,492.000000 307.965393,491.655701   C305.018677,488.435516 302.327698,485.285522 299.158051,482.728943   C280.787415,467.911591 262.378235,453.139618 243.817978,438.561188   C237.452698,433.561523 230.721924,428.999786 223.946136,424.561615   C220.540833,422.331116 216.660446,420.825897 212.947281,418.656616   C211.602005,417.548706 210.304352,416.776794 208.896408,415.784058   C208.583862,415.288269 208.320404,415.098053 207.995728,414.992645  z"
   id="path374" />
<path
   fill="#D7CDE2"
   opacity="1.000000"
   stroke="none"
   d=" M308.034546,492.356384   C309.351746,492.871521 310.879639,493.552734 312.031219,494.634583   C319.985931,502.107849 327.741272,509.797119 335.800415,517.154358   C342.768890,523.515930 349.994659,529.601257 357.220398,535.673401   C361.769623,539.496338 366.602631,542.980652 371.173401,546.779236   C376.351654,551.082642 381.364960,555.584045 386.474670,559.970642   C405.058838,575.924744 423.685394,591.829590 442.232941,607.826111   C455.405090,619.186523 468.426422,630.721863 481.604645,642.075134   C497.408569,655.690552 513.370117,669.123352 529.142456,682.774963   C538.791870,691.126892 548.152527,699.811768 557.752686,708.221619   C572.328491,720.990479 587.007385,733.641602 601.627319,746.360229   C609.119141,752.877686 616.349487,759.722595 624.134521,765.866394   C629.080994,769.770081 634.829712,772.657410 640.608093,776.000244   C642.770020,777.306152 644.542480,778.612305 646.780884,780.256409   C647.501953,781.392212 647.757080,782.190002 648.012207,782.987793   C637.563782,782.962585 630.271484,776.698853 622.909363,770.438416   C608.268494,757.988342 593.457703,745.737122 578.879395,733.214905   C572.833862,728.021973 567.358093,722.168945 561.355347,716.922546   C547.791321,705.067505 533.977417,693.498047 520.432373,681.621765   C513.601257,675.632324 507.266205,669.078735 500.465179,663.053040   C493.893616,657.230652 486.998047,651.775024 480.269470,646.128845   C470.495300,637.927063 460.751434,629.689270 450.979340,621.484985   C442.095520,614.026489 433.072510,606.728149 424.338654,599.098450   C418.751984,594.218140 413.754761,588.664551 408.183380,583.765137   C397.410370,574.291382 386.302765,565.197449 375.551453,555.699707   C366.002869,547.264526 356.848969,538.383240 347.327209,529.916687   C341.636017,524.856262 335.691742,520.059021 329.647003,515.422729   C321.238281,508.973419 312.936096,502.493103 308.034546,492.356384  z"
   id="path375" />
<path
   fill="#d7cde2"
   opacity="1"
   stroke="none"
   d="m 815.78613,736.2348 c -1.62536,-2.02771 -2.62317,-5.17773 -4.73498,-6.16742 -6.02368,-2.82281 -12.11206,-1.33612 -18.16693,0.91211 -8.77149,3.2569 -17.85712,5.70551 -26.51288,9.22632 -9.50208,3.86499 -18.66388,8.56525 -27.98218,12.88367 -9.33594,4.3266 -18.61121,8.79467 -28.04932,12.88647 -6.06744,2.63037 -12.3811,4.69299 -18.97302,7.01105 6.22565,-3.60449 12.76715,-7.35199 19.46985,-10.78485 12.62482,-6.46594 25.27655,-12.88709 38.04419,-19.06409 8.8952,-4.3034 18.03747,-8.09338 26.99988,-12.26227 4.18866,-1.9483 8.15124,-4.38067 12.33014,-6.35254 3.57922,-1.68872 7.32068,-3.03357 11.8045,-4.5296 8.61267,-0.32989 16.41553,-0.5841 24.20777,-1.02466 3.74298,-0.21154 5.96008,1.51197 5.26373,5.25708 -0.35126,0.46296 0.33014,2.0008 -0.66339,1.68824 0.88751,0.44641 0.27197,-0.59925 -0.0205,-0.44178 -0.45947,0.56141 -0.29835,0.60596 -0.50342,1.32227 -1.07789,1.79663 -3.3833,3.37469 -4.69684,4.98572 -0.72674,0.52179 -1.17987,0.91675 -1.93658,1.29516 -0.79645,0.26874 -1.28919,0.55396 -1.74298,0.86255 0.039,0.0233 0.0233,-0.0662 -0.23743,0.0147 -0.47443,0.35547 -0.68811,0.63019 -0.83807,0.90784 0.0637,0.003 0.0223,-0.11756 -0.27063,-0.0566 -0.75257,0.41772 -1.21228,0.77447 -1.62836,1.1549 0.0436,0.0237 -0.0149,-0.0565 -0.26917,0.0106 -0.40081,0.16315 -0.54742,0.25922 -0.68084,0.27069 0.0132,-0.0845 -0.21253,-0.005 -0.21253,-0.005 z"
   id="path376"
   sodipodi:nodetypes="cssssscsssscsccccccccccccccc" />
<path
   fill="#e0d9e8"
   opacity="1"
   stroke="none"
   d="m 828.94141,723.95727 c 0.47619,-3.60131 -0.97528,-5.19982 -4.71826,-4.98828 -7.79224,0.44056 -15.5951,0.69477 -23.82349,1.0149 -0.31372,-0.49372 -7.98128,3.07992 -7.68874,2.9208 10.88812,-5.92609 26.46312,-22.14358 41.09673,-20.66177 0.43237,0.77198 1.09738,2.31964 0.68869,2.84344 -0.38166,2.03327 -0.40503,3.99372 -0.39868,6.28803 -0.0611,0.77038 -0.15192,1.20685 -0.60498,1.71484 -0.71808,1.42707 -1.07392,2.78266 -1.4181,4.48658 -0.40918,1.65515 -0.82995,2.96185 -1.48632,4.42028 -0.43598,0.67267 -0.63642,1.19361 -1.02277,1.78382 -0.18591,0.0694 -0.54663,0.23645 -0.56549,0.22101 -0.0189,-0.0154 -0.0586,-0.0436 -0.0586,-0.0436 z"
   id="path377"
   sodipodi:nodetypes="cscccccccccsc" />

<path
   fill="#E0D9E8"
   opacity="1.000000"
   stroke="none"
   d=" M546.856079,691.698181   C541.802673,688.625305 536.278320,685.651062 531.489380,681.769531   C526.115662,677.414062 521.351379,672.293396 516.461243,667.367371   C515.620178,666.520142 515.473877,664.983276 514.999268,663.397156   C525.564392,672.484985 536.137024,681.940674 546.856079,691.698181  z"
   id="path379" />
<path
   fill="#E0D9E8"
   opacity="1.000000"
   stroke="none"
   d=" M648.431946,782.992188   C647.757080,782.190002 647.501953,781.392212 647.122131,780.300903   C650.955261,781.085388 654.913025,782.163452 658.952148,783.602783   C655.639465,783.641541 652.245605,783.319092 648.431946,782.992188  z"
   id="path380" />

<path
   fill="#D7CDE2"
   opacity="1.000000"
   stroke="none"
   d=" M689.644897,773.051147   C688.561829,773.989563 687.120056,774.956543 685.314148,775.948792   C686.395447,775.009216 687.840820,774.044434 689.644897,773.051147  z"
   id="path382" />
<path
   fill="#D7CDE2"
   opacity="1.000000"
   stroke="none"
   d=" M683.680542,776.042969   C683.530579,776.642578 683.059570,777.277832 682.258789,777.936890   C682.405823,777.333374 682.882690,776.705994 683.680542,776.042969  z"
   id="path383" />
<path
   fill="#ECE8F0"
   opacity="1.000000"
   stroke="none"
   d=" M174.241867,383.172729   C184.668365,376.873871 185.729813,377.769135 192.395035,383.259430   C205.260590,393.857025 217.949860,404.668640 230.858032,415.690125   C226.996384,413.814636 222.780472,411.948303 219.023941,409.403809   C210.681396,403.752960 202.935776,397.103271 194.183289,392.232849   C190.660797,390.272736 185.136505,391.910004 180.146423,391.910004   C180.957520,394.282196 181.473297,395.790619 181.826416,397.622498   C181.663788,397.945923 181.329102,397.894928 181.181747,397.649170   C180.702789,397.223145 180.371185,397.042847 179.897400,396.559875   C178.892059,394.712372 178.028915,393.167480 177.165771,391.622620   C177.056091,391.156464 176.946396,390.690277 176.549042,389.685486   C175.539124,387.355469 174.816895,385.564087 174.094666,383.772736   C174.094666,383.772736 174.154160,383.361206 174.241867,383.172729  z"
   id="path384" />

<path
   fill="#FEFEFF"
   opacity="1.000000"
   stroke="none"
   d=" M173.096680,377.319000   C173.556976,377.594940 173.965149,378.170135 174.133286,378.900696   C173.610352,378.576782 173.327438,378.097534 173.096680,377.319000  z"
   id="path386" />

<path
   fill="#F8F6FA"
   opacity="1.000000"
   stroke="none"
   d=" M195.029861,571.030762   C199.610672,567.040466 204.185257,563.031311 209.197662,558.588440   C209.812927,557.790405 209.990372,557.426147 210.167816,557.061890   C210.167816,557.061890 210.056015,557.056335 210.324768,557.011108   C210.806015,556.670105 211.018478,556.374207 211.230957,556.078369   C213.122772,554.279785 215.014572,552.481140 217.319305,550.400879   C218.194229,549.909058 218.656219,549.698792 219.426132,549.365234   C220.537659,548.511536 221.341263,547.781189 222.360474,546.986572   C222.850952,546.753784 223.012436,546.510254 223.312973,546.073059   C223.783447,545.658630 224.001480,545.362732 224.424850,545.000244   C224.889252,544.764832 225.037125,544.526794 225.325073,544.101929   C225.772736,543.679260 225.969147,543.374390 226.132355,543.082092   C226.099152,543.094666 226.157272,543.136047 226.480087,543.038940   C231.169266,539.260498 235.535614,535.579102 239.933029,532.318970   C238.771790,535.862427 238.276566,539.565552 236.252228,541.994141   C230.874588,548.445862 224.873566,554.382568 219.053650,560.460083   C210.284424,569.617493 201.454712,578.716919 192.659119,587.849121   C190.471542,590.120422 188.458435,592.585144 186.096298,594.653931   C184.502197,596.050171 182.449951,596.931274 180.578415,598.000305   C178.745361,599.047485 176.881546,600.040833 175.031219,601.057800   C174.857407,602.241333 174.683594,603.424866 174.219971,604.823303   C173.985947,601.682617 174.041702,598.327026 174.120850,594.565063   C174.144241,594.158630 174.110062,594.101562 174.330887,594.019165   C174.669388,593.631226 174.787064,593.325684 174.904724,593.020203   C180.067932,586.772888 185.231155,580.525574 190.980927,574.166016   C191.794815,573.767212 192.022171,573.480652 192.249527,573.194031   C192.249527,573.194031 192.141098,573.153442 192.418350,573.108093   C192.854584,572.735962 193.013580,572.409119 193.172577,572.082336   C193.172577,572.082336 193.056732,572.068665 193.356918,572.055542   C194.122681,571.705933 194.588257,571.369446 195.053833,571.032898   C195.053833,571.032898 195.023636,571.012024 195.029861,571.030762  z"
   id="path388" />





<path
   fill="#892BE8"
   opacity="1.000000"
   stroke="none"
   d=" M155.655518,435.053894   C155.563263,435.965454 155.126541,436.929718 154.345520,437.946960   C154.437836,437.035522 154.874435,436.071075 155.655518,435.053894  z"
   id="path394" />





<path
   fill="#D7CDE2"
   opacity="1.000000"
   stroke="none"
   d=" M205.051910,418.986145   C204.109772,418.226624 203.167633,417.467102 202.083893,416.437805   C203.721924,415.752441 205.501556,415.336853 207.638458,414.956970   C208.320404,415.098053 208.583862,415.288269 208.943542,416.120300   C210.398941,417.449158 211.696915,418.220917 212.994904,418.992676   C216.660446,420.825897 220.540833,422.331116 223.946136,424.561615   C230.721924,428.999786 237.452698,433.561523 243.817978,438.561188   C262.378235,453.139618 280.787415,467.911591 299.158051,482.728943   C302.327698,485.285522 305.018677,488.435516 307.962952,491.656708   C304.659851,489.666931 301.307404,487.355957 297.992279,484.992584   C284.570038,475.423798 271.131592,465.877289 257.755859,456.243774   C251.050247,451.414276 244.589508,446.233307 237.746567,441.613434   C235.895752,440.363861 233.054596,440.581207 230.254044,440.174744   C229.840073,440.224274 229.886566,440.199371 229.763916,439.917114   C229.276123,439.473175 228.910980,439.311523 228.249939,439.024231   C222.693253,434.536285 217.432495,430.173950 212.171738,425.811615   C212.171738,425.811615 212.091736,425.860474 212.045685,425.621704   C211.687881,425.205750 211.376160,425.028534 211.064438,424.851288   C211.064438,424.851288 211.092407,424.938873 211.072342,424.593262   C210.377380,423.481689 209.702484,422.715729 209.027603,421.949768   C208.448761,421.592133 207.869904,421.234528 207.019165,420.351532   C206.182144,419.546173 205.617035,419.266174 205.051910,418.986145  z"
   id="path400" />
<path
   fill="#ECE8F0"
   opacity="1.000000"
   stroke="none"
   d=" M231.042786,416.339905   C234.105453,417.972717 237.199280,419.952454 240.645081,421.967926   C242.571136,423.805939 244.145218,425.608185 245.859650,427.705841   C241.024643,424.229767 236.049301,420.458282 231.042786,416.339905  z"
   id="path401" />


<path
   fill="#5818AB"
   opacity="1.000000"
   stroke="none"
   d=" M633.540405,358.575836   C633.256592,358.872040 632.668945,359.310669 632.039368,359.482422   C632.410461,359.049774 632.823608,358.884003 633.540405,358.575836  z"
   id="path404" />
<path
   fill="#5818AB"
   opacity="1.000000"
   stroke="none"
   d=" M669.955566,353.734436   C669.843262,353.710846 669.738098,353.453918 669.789307,353.115723   C669.945740,353.034424 669.962769,353.501068 669.955566,353.734436  z"
   id="path405" />




<path
   fill="#ece8f0"
   opacity="1"
   stroke="none"
   d="m 249.89413,522.95306 c 2.26836,-2.10211 4.53669,-4.20428 7.27744,-6.73126 1.51016,-1.28631 2.54797,-2.14776 3.65097,-2.49865 0.096,3.0028 0.74322,5.68469 0.0454,7.95281 -2.37808,7.72974 1.26465,13.51673 5.52216,19.1648 3.59979,4.77551 7.56418,9.28601 10.99523,14.1748 1.65778,2.36213 2.27183,5.42804 3.68479,7.99573 5.11804,9.30078 3.61877,25.01373 -4.12042,32.37164 -10.77027,10.23963 -22.14345,19.84375 -33.19056,29.79548 -1.13786,1.02496 -1.37486,2.51277 -2.28976,3.79445 0.346,0.45352 -0.64694,0.42006 -1.01143,0.43526 -2.61043,1.06555 -4.90243,1.43063 -6.8295,2.89938 -4.399,3.35259 -9.12957,4.60119 -14.28152,2.6853 -4.56258,-1.69672 -8.80643,-3.38968 -13.25095,-5.40396 -1.23138,-0.80762 -2.57007,-2.18753 -3.95506,-3.2872 -0.72469,-1.42994 -2.08258,-3.17595 -2.41989,-4.60637 1.99318,0.54346 4.72951,1.73063 6.26575,2.86796 6.47747,4.79553 13.13037,3.51874 18.95903,-2.10144 6.56024,-6.3255 13.7733,-12.12982 21.35829,-17.17474 4.13788,-2.75214 5.83848,-6.85993 7.35363,-10.48712 2.38755,-5.71558 3.01157,-11.69715 1.00805,-18.69281 -1.75675,-6.1341 -4.37371,-11.92255 -6.13295,-18.0091 -0.72525,-2.50934 -1.20209,-5.22912 -2.53273,-7.3988 -3.92353,-6.39758 -3.8394,-7.65051 0.63566,-13.97638 1.97737,-2.79517 3.41501,-6.07099 4.53411,-9.32263 0.41111,-1.19452 -0.80298,-2.94843 -1.27575,-4.44715 z"
   id="path410"
   sodipodi:nodetypes="cccsssssscccscccssssssssscc" />
<path
   fill="#cabed9"
   opacity="1"
   stroke="none"
   d="m 202.03728,638.89593 c 0,0 -0.46048,-0.8385 -0.48278,-1.00732 1.36558,-4.41736 4.0418,-1.11731 5.58045,-0.0713 9.17045,6.2348 20.40649,5.45368 28.43475,-2.1969 0.21433,-0.20422 0.2439,-0.60235 0.60962,-1.52337 1.78745,-2.0893 3.32489,-3.56531 4.86234,-5.04132 0,0 -0.0355,-0.0509 0.3377,-0.0711 6.19298,-4.37079 12.09806,-8.61261 17.81446,-13.09497 11.32937,-8.88361 21.40815,-17.36051 32.99522,-26.35648 1.09842,-0.68835 2.75479,-1.67942 3.80173,-2.45097 0.76114,-0.70062 1.99678,-1.78937 2.80089,-2.50983 3.43692,-2.37847 7.474,-5.73219 10.59491,-7.60621 -2.53424,3.48529 -6.11838,8.37228 -9.03248,11.07467 -10.41006,9.65405 -20.82174,19.33307 -31.68518,28.46448 -12.59057,10.58313 -25.67216,20.5813 -38.49676,30.888 -1.20262,0.96649 -2.0911,2.32404 -3.35999,3.76672 2.1601,0.70008 3.66725,1.18854 4.76601,1.75733 -1.79276,0.13171 -3.17711,0.18323 -4.88676,0.14673 -0.77297,-0.11182 -1.2206,-0.13568 -1.93854,-0.3324 -1.09662,-0.35687 -1.34968,0.0491 -2.47148,-0.33905 -2.95952,-1.34369 -6.19681,-3.07337 -8.7679,-4.19269 0.093,0.0202 0.15408,-0.16003 0.11471,-0.38794 -0.93435,-0.96515 -1.82933,-1.70239 -2.7977,-2.78784 -1.38522,-1.20252 -2.69705,-2.05682 -3.96514,-2.93176 0.0437,-0.0205 0.03,0.0751 0.0281,-0.28479 -0.9529,-0.84516 -1.90383,-1.33032 -3.12769,-1.90796 -0.7581,-0.39618 -1.24325,-0.69995 -1.72842,-1.00373 z"
   id="path411"
   sodipodi:nodetypes="cccscccscccccssccccccccccccc" />
<path
   fill="#e0d9e8"
   opacity="1"
   stroke="none"
   d="m 241.46957,628.81803 c -1.17298,1.46081 -3.23308,3.2403 -4.97954,4.97907 -2.44986,1.22022 -4.95925,2.12984 -7.20149,3.084 -7.95919,3.38697 -18.02467,0.27851 -23.2619,-7.51727 4.40657,1.66705 8.75772,3.93225 13.3203,5.62897 5.15195,1.91589 9.88252,0.66729 14.28152,-2.6853 1.92707,-1.46875 5.23066,-2.42392 7.84111,-3.48947 z"
   id="path412"
   sodipodi:nodetypes="ccscssc" />
<path
   fill="#f1eef4"
   opacity="1"
   stroke="none"
   d="m 249.59227,523.08813 c 0.77463,1.36365 1.98872,3.11756 1.57761,4.31208 -1.1191,3.25164 -2.55674,6.52746 -4.53411,9.32263 -4.47506,6.32587 -4.55919,7.5788 -0.63566,13.97638 1.33064,2.16968 1.80748,4.88946 2.53273,7.3988 1.75924,6.08655 4.3762,11.875 6.13295,18.0091 2.00352,6.99566 1.3795,12.97723 -1.00805,18.69281 -1.51515,3.62719 -3.21575,7.73498 -7.35363,10.48712 -7.58499,5.04492 -14.79805,10.84924 -21.35829,17.17474 -5.82866,5.62018 -12.48156,6.89697 -18.95903,2.10144 -1.53624,-1.13733 -3.89108,-1.51382 -6.02525,-2.35263 -8.49571,-6.89642 -16.52096,-14.17298 -24.94093,-21.19983 1.55132,-1.15046 3.72475,-1.96328 5.5578,-3.01046 1.87154,-1.06904 3.92379,-1.95014 5.51789,-3.34638 2.36213,-2.06879 4.37524,-4.53351 6.56282,-6.80481 8.79559,-9.1322 17.6253,-18.23163 26.39453,-27.38904 5.81992,-6.07751 11.82094,-12.01422 17.19858,-18.46594 2.02434,-2.42859 2.51956,-6.13171 3.68081,-9.67517 -0.031,-0.42127 0.007,-0.36426 0.22252,-0.4635 0.41521,-0.38764 0.61446,-0.67603 0.89264,-1.19598 0.37346,-0.4383 0.48406,-0.71753 0.41077,-1.0691 0,0 0.1761,0.0587 0.27022,0.0601 2.58316,-2.14136 5.07219,-4.2843 7.86308,-6.56238 z"
   id="path413"
   sodipodi:nodetypes="csssssssssccsssssccccccc" />





<path
   fill="#c0b2d0"
   opacity="1"
   stroke="none"
   d="m 274.14535,625.9975 c -8.5708,6.15832 -17.1416,12.31665 -25.90652,18.74469 -1.05917,0.84253 -1.92422,1.41546 -3.30017,2.29461 -1.11466,0.81415 -1.71842,1.32203 -2.32217,1.82996 -1.09659,0.50427 -2.1932,1.00855 -3.7401,1.83307 -0.64977,0.59393 -0.84923,0.86761 -1.04869,1.1413 1e-5,0 0.10304,-0.0127 -0.31192,-0.0698 -2.11974,0.3172 -3.87508,1.56812 -5.57982,1.94239 -1.50716,-0.48847 -6.09966,0.62476 -8.25976,-0.0753 1.26889,-1.44268 5.2933,-5.27863 6.49592,-6.24512 12.8246,-10.3067 25.90619,-20.30487 38.49676,-30.888 10.86344,-9.13141 21.27512,-18.81043 31.68518,-28.46448 2.9141,-2.70239 5.11573,-6.17315 7.9455,-9.81085 1.78302,-2.08423 2.75894,-3.34569 4.58166,-4.94786 2.76685,-2.01618 5.69846,-4.29842 8.42853,-6.42537 4.17615,-3.23938 7.88724,-6.56586 11.96613,-9.35425 3.8934,-2.66162 3.36798,-5.05407 0.65484,-8.1131 -3.82446,-4.31207 -7.44592,-8.80371 -11.17529,-13.20068 -7.21249,-8.50366 -14.35266,-17.07104 -21.69693,-25.45956 -3.78677,-4.32526 -8.24209,-8.09098 -11.78628,-12.58942 -1.31678,-1.67127 -0.89435,-4.71277 -1.26508,-7.12943 3.71924,2.9126 7.57898,5.66425 11.13199,8.76713 11.94095,10.42822 23.74988,21.00747 35.65332,31.47891 9.63571,8.47656 19.96663,16.8811 29.58476,25.90967 -5.66418,5.013 -11.84172,9.52056 -17.53047,13.83972 -21.9592,16.67273 -43.96408,33.28534 -65.95193,49.92035 0,0 0.0717,0.0469 -0.18882,0.0926 -0.46252,0.3269 -0.66461,0.60815 -0.86664,0.88946 0,0 0.0948,6.7e-4 -0.19067,0.0258 -0.47409,0.3161 -0.66278,0.60718 -0.85147,0.89819 0,0 0.10172,-0.007 -0.22952,-0.0283 -0.77878,0.36017 -1.22632,0.74188 -1.67383,1.1236 0,0 0.0739,0.0428 -0.19226,0.0817 -0.46887,0.32129 -0.67157,0.6037 -0.87433,0.88605 0,0 0.11166,-0.0145 -0.21127,-0.0229 -0.70551,0.36945 -1.08808,0.74738 -1.47065,1.12531 z"
   id="path419"
   sodipodi:nodetypes="cccccscccssscccssssscsscccccccccccccc" />

<path
   fill="#cabed9"
   opacity="1"
   stroke="none"
   d="m 637.45481,797.88005 c -0.30573,-0.008 -0.56391,-0.12323 -0.86829,-0.91095 -0.82104,-0.96545 -2.2311,-0.26904 -2.95833,-0.66851 0,0 -1.70511,-1.50411 -1.5083,-2.03393 4.53583,-4.31146 12.60384,-5.92912 18.85931,-5.93997 9.23282,-0.016 18.0285,-1.96947 26.46426,-3.36906 8.0015,-1.32755 15.07278,-5.99131 22.55581,-9.15855 11.87378,-5.02564 24.15874,-10.73096 35.85933,-15.06035 13.92267,-5.15159 27.25862,-12.36023 43.41423,-16.5942 4.00128,-1.04864 7.52211,-1.81247 12.39252,-3.10741 3.14942,-0.83737 5.98771,-1.32681 9.18339,-1.89792 1.70922,-0.30548 6.95919,-0.0445 7.57011,1.70961 -0.2829,0.849 -2.56988,1.88087 -2.69903,2.20936 0,0 -0.0554,-0.0709 -0.33722,-0.11047 -0.77417,0.30365 -1.26654,0.64679 -1.75885,0.98999 -6e-5,-6e-5 4.9e-4,-0.0776 -0.28235,-0.0642 -0.76092,0.36231 -1.23895,0.7113 -1.71691,1.0603 0,0 -0.001,-0.0771 -0.28363,-0.0619 -0.76105,0.3609 -1.23975,0.70667 -1.71845,1.05249 0,0 -0.003,-0.0753 -0.33276,-0.0764 -1.44031,0.70044 -2.55078,1.40192 -3.66132,2.10345 0,-6e-5 -0.0732,0.26941 -0.39349,0.49659 -0.81324,0.56011 -1.30616,0.89306 -1.79908,1.22595 0,0 0.0918,0.0365 -0.22058,0.0353 -0.80273,0.31677 -1.29303,0.6347 -1.78332,0.95263 0,0 0.11444,-0.008 -0.26001,0.0219 -0.94299,0.35364 -1.51154,0.67731 -2.08002,1.00098 0,6e-5 -0.27868,-0.0102 -0.75262,0.0906 -3.60041,1.72271 -6.72693,3.34466 -9.85346,4.96661 0,0 0.0793,0.0339 -0.22406,0.0443 -0.7951,0.3244 -1.28692,0.63837 -1.77875,0.95239 0,0 0.0797,0.0355 -0.22479,0.0423 -0.79736,0.32141 -1.29016,0.63599 -1.78296,0.9505 0,6e-5 0.0814,0.0311 -0.22351,0.0361 -0.79828,0.32129 -1.29175,0.63752 -1.78521,0.95368 0,0 0.083,0.0298 -0.22248,0.0336 -0.80188,0.31561 -1.2984,0.62744 -1.79486,0.93927 0,0 0.0881,0.0287 -0.22064,0.0291 -0.80298,0.31488 -1.29724,0.62934 -1.7915,0.94373 0,0 0.0969,0.0338 -0.2212,0.0271 -0.80847,0.30804 -1.29895,0.62274 -1.78936,0.9375 0,0 0.0896,0.083 -0.26081,0.0646 -0.93206,0.32111 -1.51361,0.66059 -2.09521,1.00006 0,0 -0.26465,-0.0303 -0.36707,0.0549 -16.87884,8.013 -33.65521,15.94092 -50.88806,23.76752 -0.67926,0.096 -0.90204,0.29327 -1.12488,0.49054 6e-5,6e-5 -0.0446,-0.0834 -0.32287,-0.0901 -0.76013,0.35034 -1.24188,0.7074 -1.72364,1.06446 -6e-5,-7e-5 -0.001,-0.0865 -0.2821,-0.0806 -0.76202,0.3576 -1.24322,0.70917 -1.72449,1.06079 0,0 -10e-4,-0.0822 -0.28271,-0.0704 -0.76135,0.36053 -1.24146,0.70935 -1.7215,1.05822 0,0 -0.002,-0.081 -0.27997,-0.0667 -0.76245,0.34894 -1.2464,0.6836 -1.73034,1.01825 0,0 -0.007,-0.0699 -0.37702,-0.0618 -3.76849,1.7342 -7.16736,3.46027 -10.56628,5.18641 0,0 -0.0198,-0.0914 -0.30188,-0.10083 -0.76203,0.35424 -1.24207,0.71807 -1.72205,1.08184 0,0 -0.007,-0.0936 -0.28656,-0.0947 -0.76105,0.3562 -1.24219,0.71344 -1.72339,1.07068 0,0 -3.6e-4,-0.0864 -0.28149,-0.082 -0.76343,0.35485 -1.24579,0.70526 -1.72821,1.05566 0,-6e-5 -0.003,-0.0819 -0.28223,-0.0688 -0.76208,0.35291 -1.24469,0.69269 -1.72723,1.03253 0,0 -0.007,-0.0763 -0.35651,-0.0726 -1.77051,0.71985 -3.19104,1.43598 -4.61157,2.15216 0,0 -0.0204,-0.0828 -0.40308,-0.11029 -6.80957,0.35065 -13.23291,0.82337 -19.66497,1.06018 -2.52491,0.0928 -5.08411,-0.23138 -7.60059,-0.56817 -2.5318,-0.33887 -5.02985,-0.92939 -7.54272,-1.40961 0,0 0.0926,-0.023 -0.0435,-0.27856 -0.74054,-0.4198 -1.34503,-0.58405 -1.94959,-0.74823 0,0 0.0894,-0.0317 -0.0433,-0.27662 -0.72449,-0.42273 -1.31622,-0.60052 -1.90802,-0.77832 0,0 0.0807,-0.0405 0.0325,-0.36578 -1.05896,-0.76562 -2.06964,-1.20593 -3.08038,-1.64618 z"
   id="path421"
   sodipodi:nodetypes="scccssssssscccscccccscccccscccccsccccccccccccscscccccccccccccscccccssccccccss" />


<path
   fill="#cabed9"
   opacity="1"
   stroke="none"
   d="m 281.90662,494.71258 c 0.48141,-0.52313 0.96289,-1.04623 2.01318,-1.66857 1.06119,-0.43244 1.55359,-0.76566 2.04596,-1.09885 0.0437,-0.16107 0.0873,-0.32217 0.1918,-0.72632 0.45825,-0.23437 0.85572,-0.22574 1.55136,-0.21283 0.66895,2.42096 0.24652,5.46246 1.5633,7.13373 3.54419,4.49844 7.99951,8.26416 11.78628,12.58942 7.34427,8.38852 14.48444,16.9559 21.69693,25.45956 3.72937,4.39697 7.35083,8.88861 11.17529,13.20068 2.71314,3.05903 3.23856,5.45148 -0.65484,8.1131 -4.07889,2.78839 -7.6551,6.55323 -11.83247,9.37934 -0.60696,-3.91614 0.22612,-8.86005 -1.55925,-11.51209 -8.85657,-13.15582 -17.34934,-26.6402 -29.0709,-37.65491 -5.98962,-5.62835 -10.84494,-12.15365 -11.06823,-20.96859 0,0 0.10073,0.0241 0.35372,0.005 0.43183,-0.32611 0.61066,-0.63324 0.78949,-0.94037 4e-5,0 0.0568,0.0796 0.27845,-0.0117 0.39441,-0.4231 0.56717,-0.75492 0.73993,-1.08677 z"
   id="path424"
   sodipodi:nodetypes="cccccssssscssccscc" />

<path
   fill="#4E159A"
   opacity="1.000000"
   stroke="none"
   d=" M403.204102,591.281616   C402.605408,591.177795 401.885040,590.820801 401.206787,590.093018   C401.860046,590.157715 402.471252,590.593079 403.204102,591.281616  z"
   id="path426" />







<path
   fill="#4E159A"
   opacity="1.000000"
   stroke="none"
   d=" M400.096130,588.640869   C399.878662,588.719238 399.568512,588.538513 399.167053,588.095459   C399.385010,588.016052 399.694214,588.198914 400.096130,588.640869  z"
   id="path434" />
<path
   fill="#4E159A"
   opacity="1.000000"
   stroke="none"
   d=" M401.150269,589.571655   C400.918518,589.669678 400.595215,589.506470 400.183563,589.074829   C400.416382,588.974365 400.737549,589.142395 401.150269,589.571655  z"
   id="path435" />
<path
   fill="#4E159A"
   opacity="1.000000"
   stroke="none"
   d=" M403.916260,591.858398   C403.763428,591.995850 403.521606,591.989258 403.393158,591.793945   C403.506561,591.605286 403.827271,591.714294 403.916260,591.858398  z"
   id="path436" />
<path
   fill="#D7CDE2"
   opacity="1.000000"
   stroke="none"
   d=" M236.783539,446.069519   C236.546295,446.143982 236.191223,445.887421 235.646713,445.357422   C235.860077,445.302185 236.262894,445.520355 236.783539,446.069519  z"
   id="path437" />


<path
   fill="#5416A7"
   opacity="1.000000"
   stroke="none"
   d=" M441.426697,624.609741   C441.199432,624.720886 440.795258,624.558838 440.241882,624.098511   C440.478363,623.978943 440.864044,624.157715 441.426697,624.609741  z"
   id="path440" />









<path
   fill="#E0D9E8"
   opacity="1.000000"
   stroke="none"
   d=" M212.947281,418.656616   C211.696915,418.220917 210.398941,417.449158 209.053833,416.341125   C210.304352,416.776794 211.602005,417.548706 212.947281,418.656616  z"
   id="path450" />




<path
   fill="#E0D9E8"
   opacity="1.000000"
   stroke="none"
   d=" M828.890320,724.958557   C828.890320,724.958557 828.502686,725.091187 828.305237,725.146729   C828.238892,724.883118 828.369995,724.564026 828.721252,724.101074   C828.941406,723.957275 828.981140,723.985474 828.977661,724.237793   C828.974243,724.490051 828.890320,724.958557 828.890320,724.958557  z"
   id="path455" />



<path
   fill="#F2EDF8"
   opacity="1.000000"
   stroke="none"
   d=" M834.496338,705.086365   C834.694946,706.789246 834.535217,708.564941 834.221741,710.690552   C834.091309,709.080078 834.114685,707.119629 834.496338,705.086365  z"
   id="path459" />
<path
   fill="#F2EDF8"
   opacity="1.000000"
   stroke="none"
   d=" M833.492676,713.089233   C833.448059,714.296387 833.041260,715.575073 832.348694,717.040649   C832.418762,715.871887 832.774597,714.516296 833.492676,713.089233  z"
   id="path460" />










<path
   fill="#F8F6FA"
   opacity="1.000000"
   stroke="none"
   d=" M240.014740,531.359985   C240.060165,531.161133 240.513214,531.020996 240.741241,530.955994   C240.770020,531.179443 240.570770,531.467834 240.121582,531.855591   C239.871658,531.954834 239.969330,531.558777 240.014740,531.359985  z"
   id="path471" />

<path
   fill="#E0D9E8"
   opacity="1.000000"
   stroke="none"
   d=" M205.222260,419.237366   C205.617035,419.266174 206.182144,419.546173 206.834000,420.148376   C206.411362,420.143250 205.901962,419.815918 205.222260,419.237366  z"
   id="path473" />

<path
   fill="#D2C7E0"
   opacity="1.000000"
   stroke="none"
   d=" M229.763916,439.917114   C229.548447,440.013550 229.210342,439.827728 228.709045,439.395874   C228.910980,439.311523 229.276123,439.473175 229.763916,439.917114  z"
   id="path475" />
<path
   fill="#e0d9e8"
   opacity="1"
   stroke="none"
   d="m 267.92053,506.55841 c 0.52924,-0.50409 0.89527,-0.72751 1.6077,-0.66308 0.69452,2.39437 1.80694,4.74413 1.23025,6.55639 -1.16931,3.67462 -0.0854,6.32361 1.98682,9.15698 4.6647,6.37806 9.13654,12.89685 13.71417,19.33899 4.38871,6.17646 9.43735,11.99323 12.98609,18.6164 2.13791,3.99023 4.41159,8.80456 2.61581,13.92608 -1.3472,3.84229 -2.39763,7.81707 -3.74862,11.65808 -0.49383,0.58294 -0.95392,1.09845 -2.06949,1.80481 -1.14155,1.09999 -2.47065,1.40204 -3.22654,2.07502 -11.26831,8.96154 -22.49356,17.97796 -33.82293,26.86157 -5.7164,4.48236 -11.62148,8.72418 -17.78952,13.11352 0.54167,-1.26141 1.21702,-2.7998 2.35488,-3.82476 11.04711,-9.95173 22.42029,-19.55585 33.19056,-29.79548 7.73919,-7.35791 9.23846,-23.07086 4.12042,-32.37164 -1.41296,-2.56769 -2.02701,-5.6336 -3.68479,-7.99573 -3.43105,-4.88879 -7.39544,-9.39929 -10.99523,-14.1748 -4.25751,-5.64807 -7.90024,-11.43506 -5.52216,-19.1648 0.69781,-2.26812 0.0506,-4.95001 -0.0454,-7.95281 2.2681,-2.63505 4.60144,-4.75956 7.09796,-7.16474 z"
   id="path476"
   sodipodi:nodetypes="ccscssscccsccssssscc" />

<path
   fill="#dbd4e6"
   opacity="1"
   stroke="none"
   d="m 298.15098,585.14562 c 1.04068,-3.70349 2.56319,-7.81316 3.91039,-11.65545 1.79578,-5.12152 -0.4779,-9.93585 -2.61581,-13.92608 -3.54874,-6.62317 -8.59738,-12.43994 -12.98609,-18.6164 -4.57763,-6.44214 -9.04947,-12.96093 -13.71417,-19.33899 -2.07217,-2.83337 -3.15613,-5.48236 -1.98682,-9.15698 0.57669,-1.81226 -0.53573,-4.16202 -0.95428,-6.72418 2.15164,-2.46176 4.37372,-4.46784 6.90112,-6.15509 0.42139,5.71728 -0.50357,11.18359 3.33487,16.01483 9.43509,11.87549 18.92416,23.729 27.79288,36.02319 3.4353,4.76215 9.05127,9.30274 6.16449,16.70136 -0.57288,1.46826 -0.64728,3.13104 -0.95154,4.7041 -1.48172,1.56488 -2.5588,3.12982 -4.33605,4.84711 -3.42221,2.39337 -7.1221,4.9041 -10.55899,7.28258 z"
   id="path478"
   sodipodi:nodetypes="csscssccsssccc" />



<path
   fill="#DBD4E6"
   opacity="1.000000"
   stroke="none"
   d=" M293.335510,588.993652   C293.772614,588.355103 294.528473,587.682129 295.638763,587.003296   C295.213562,587.651428 294.433899,588.305298 293.335510,588.993652  z"
   id="path482" />
<path
   fill="#D7CDE2"
   opacity="1.000000"
   stroke="none"
   d=" M206.893402,641.807617   C206.061905,641.607178 205.228439,641.046814 204.216797,640.239258   C204.989563,640.477295 205.940491,640.962463 206.893402,641.807617  z"
   id="path483" />


















<path
   fill="#D2C7E0"
   opacity="1.000000"
   stroke="none"
   d=" M643.058594,801.435486   C645.359680,801.623535 647.857727,802.214050 650.389526,802.552917   C652.906006,802.889709 655.465210,803.213928 657.990112,803.121094   C664.422180,802.884277 670.845520,802.411560 677.697571,802.064148   C666.449707,807.245239 654.835266,806.832031 643.058594,801.435486  z"
   id="path502" />
<path
   fill="#D2C7E0"
   opacity="1.000000"
   stroke="none"
   d=" M691.444946,796.138062   C694.478210,794.471130 697.877075,792.745056 701.673889,791.031738   C698.651428,792.722595 695.231018,794.400696 691.444946,796.138062  z"
   id="path503" />
<path
   fill="#D2C7E0"
   opacity="1.000000"
   stroke="none"
   d=" M678.406982,802.134338   C679.478699,801.455017 680.899231,800.738892 682.702759,800.038391   C681.642456,800.735168 680.199097,801.416321 678.406982,802.134338  z"
   id="path504" />
<path
   fill="#D2C7E0"
   opacity="1.000000"
   stroke="none"
   d=" M636.041138,797.304871   C636.865356,797.489868 637.876038,797.930176 638.915161,798.736328   C638.038330,798.588257 637.132996,798.074158 636.041138,797.304871  z"
   id="path505" />
<path
   fill="#D2C7E0"
   opacity="1.000000"
   stroke="none"
   d=" M632.825256,794.648987   C633.438049,794.773743 634.165283,795.173218 634.893066,795.943359   C634.242249,795.850525 633.591003,795.387146 632.825256,794.648987  z"
   id="path506" />
<path
   fill="#D2C7E0"
   opacity="1.000000"
   stroke="none"
   d=" M639.092285,799.294983   C639.494263,799.239380 640.085999,799.417175 640.810608,799.887329   C640.389648,799.962585 639.835876,799.745483 639.092285,799.294983  z"
   id="path507" />
<path
   fill="#D2C7E0"
   opacity="1.000000"
   stroke="none"
   d=" M687.348145,798.107422   C687.526611,797.797058 688.007751,797.439819 688.814209,797.095215   C688.643250,797.425415 688.147034,797.742981 687.348145,798.107422  z"
   id="path508" />
<path
   fill="#D2C7E0"
   opacity="1.000000"
   stroke="none"
   d=" M689.361694,797.136169   C689.535339,796.814514 690.015381,796.450684 690.823486,796.104553   C690.657043,796.446167 690.162537,796.770142 689.361694,797.136169  z"
   id="path509" />
<path
   fill="#D2C7E0"
   opacity="1.000000"
   stroke="none"
   d=" M702.321899,791.035400   C702.506531,790.738037 702.990479,790.403381 703.790527,790.069336   C703.611450,790.379333 703.116272,790.688782 702.321899,791.035400  z"
   id="path510" />
<path
   fill="#D2C7E0"
   opacity="1.000000"
   stroke="none"
   d=" M704.332092,790.074341   C704.512939,789.772217 704.993042,789.423401 705.793335,789.075806   C705.619507,789.393860 705.125427,789.710754 704.332092,790.074341  z"
   id="path511" />
<path
   fill="#D2C7E0"
   opacity="1.000000"
   stroke="none"
   d=" M706.339539,789.091553   C706.518372,788.781677 706.999573,788.430115 707.803223,788.084106   C707.631104,788.409729 707.136536,788.729797 706.339539,789.091553  z"
   id="path512" />
<path
   fill="#D2C7E0"
   opacity="1.000000"
   stroke="none"
   d=" M708.348755,788.111938   C708.525452,787.796021 709.007202,787.438965 709.814331,787.094055   C709.644348,787.427673 709.149109,787.749207 708.348755,788.111938  z"
   id="path513" />
<path
   fill="#D2C7E0"
   opacity="1.000000"
   stroke="none"
   d=" M685.338928,799.087646   C685.518127,798.777527 686.000488,798.427124 686.805298,798.084717   C686.632568,798.410889 686.137329,798.729126 685.338928,799.087646  z"
   id="path514" />
<path
   fill="#D2C7E0"
   opacity="1.000000"
   stroke="none"
   d=" M683.325928,800.053833   C683.508789,799.751770 683.991394,799.411987 684.791992,799.072998   C684.615173,799.387939 684.120361,799.701965 683.325928,800.053833  z"
   id="path515" />
<path
   fill="#D2C7E0"
   opacity="1.000000"
   stroke="none"
   d=" M641.027710,800.368774   C641.458313,800.280701 642.062805,800.444946 642.794678,800.911621   C642.348633,801.016479 641.775146,800.818726 641.027710,800.368774  z"
   id="path516" />
<path
   fill="#D2C7E0"
   opacity="1.000000"
   stroke="none"
   d=" M710.320679,787.141357   C710.313049,786.981445 710.535828,786.784180 710.865967,786.745728   C710.973389,786.904541 710.551208,787.103943 710.320679,787.141357  z"
   id="path517" />





<path
   fill="#d2c7e0"
   opacity="1"
   stroke="none"
   d="m 312.16469,574.04081 c -0.0367,-1.53577 1.25999,-4.26072 1.83287,-5.72898 2.88678,-7.39862 -2.72919,-11.93921 -6.16449,-16.70136 -8.86872,-12.29419 -18.35779,-24.1477 -27.79288,-36.02319 -3.83844,-4.83124 -2.91348,-10.29755 -3.03558,-16.15869 0.72125,-1.14179 1.44858,-1.82089 2.45816,-2.59119 0.50555,8.72379 5.36087,15.24909 11.35049,20.87744 11.72156,11.01471 20.21433,24.49909 29.0709,37.65491 1.78537,2.65204 1.25577,7.19131 1.55847,11.25558 -2.42459,2.39209 -6.5111,5.3993 -9.27794,7.41548 z"
   id="path523"
   sodipodi:nodetypes="csssccsscc" />

<path
   fill="#D2C7E0"
   opacity="1.000000"
   stroke="none"
   d=" M281.658112,494.848541   C281.733856,495.044434 281.561096,495.376251 281.120728,495.815948   C281.038605,495.610687 281.224091,495.297577 281.658112,494.848541  z"
   id="path525" />


<path
   d="M 330.73829,4.425508 C 213.71831,6.9945081 154.87431,19.147503 107.64831,50.497503 c -16.116003,10.698 -38.844003,33.784 -50.604001,51.399997 -19.929,29.85401 -29.653,54.15401 -37.816,94.50001 -10.154,50.192 -12.4640003,105.785 -12.2950003,296 0.161,181.622 2.2050003,246.866 9.3820003,299.5 8.099,59.401 28.564,104.758 63.320998,140.342 27.394003,28.046 59.218003,47.22 97.102003,58.504 39.823,11.85989 79.974,16.80789 160.99998,19.83789 47.524,1.777 350.663,1.795 381.5,0.023 85.494,-4.914 126.732,-13.16386 168.5,-33.70689 45.158,-22.21 76.505,-53.228 99.375,-98.331 7.996,-15.771 12.34201,-28.115 18.02801,-51.212 9.752,-39.609 14.417,-86.528 16.003,-160.957 1.161,-54.453 1.222,-234.74 0.102,-297.5 -2.026,-113.469 -5.801,-156.925 -17.136,-197.293 -10.28801,-36.638 -29.10001,-70.05901 -53.78401,-95.551007 -17.419,-17.99 -32.648,-29.067 -54.504,-39.647 -20.397,-9.873 -35.291,-14.589 -64.584,-20.453 -24.883,-4.98 -44.629,-7.220995 -94.5,-10.725995 -18.834,-1.323 -352.256,-1.982 -406,-0.802 m 321,162.381002 c -6.611,1.638 -11.78,4.392 -20.268,10.8 -7.517,5.674 -14.893,12.122 -79.269,69.291 -22.915,20.35 -51.039,45.325 -62.499,55.5 -11.459,10.175 -28.774,25.475 -38.479,34 -9.704,8.525 -31.044,27.425 -47.422,42 -16.377,14.575 -30.759,27.256 -31.958,28.179 -2.1,1.617 -2.383,1.527 -7.643,-2.438 -3.004,-2.265 -25.487,-19.495 -49.962,-38.29 -24.475,-18.794 -49.01708,-35.99544 -53.25608,-38.86644 -13.551,-9.177 -20.1979,-11.05075 -31.2409,-7.25175 -7.825,2.692 -9.396,3.45319 -23.663,16.15019 -26.3294,26.24636 -30.289,27.776 -30.321,41.017 -0.025,10.32 2.472,15.672 11.43,24.5 3.628,3.575 27.848,24.709 53.823,46.965 25.976,22.256 47.19798,40.706 47.16198,41 -0.036,0.294 -7.082,6.61 -15.65798,14.035 -31.028,26.866 -83.921,73.959 -89.48,79.669 -5.834,5.992 -7.893,10.795 -7.93,18.499 -0.047,9.85 3.9975,14.62451 17.2905,26.05551 29.413,25.293 36.0149,28.50209 49.3239,20.06209 8.973,-5.691 81.66552,-59.30882 121.77552,-90.19482 2.145,-1.651 2.87306,-0.47578 33.28506,26.13922 17.028,14.9 39.336,34.332 49.575,43.181 10.238,8.849 27.338,23.982 38,33.63 10.661,9.647 33.334,29.881 50.384,44.964 25.508,22.565 67.63368,58.85089 95.29768,83.81889 7.38,6.661 14.01796,10.65776 20.44896,12.53276 6.26,1.825 17.14784,2.19232 23.35084,0.54032 4.11,-1.094 40.83052,-16.95697 110.26052,-50.29797 38.641,-18.555 44.162,-22.443 49.846,-35.099 1.706,-3.801 1.821,-15.461 2.298,-234 0.402,-184.728 0.25,-230.926 -0.776,-234.706 -1.44,-5.306 -5.961,-11.686 -11.36,-16.031 -1.999,-1.609 -13.249,-6.873 -25,-11.698 -11.751,-4.825 -38.241,-16.105 -58.866,-25.066 -50.958,-22.14 -59.962,-25.815 -68.754,-28.064 -8.573,-2.193 -12.589,-2.299 -19.746,-0.526 m -14.554,188.901 c -19.005,14.955 -57.255,44.935 -85,66.623 -56.922,44.495 -83.31692,65.24746 -83.31692,65.73846 0,0.993 33.31588,29.94612 64.25099,51.32641 20.44855,17.33015 44.18954,34.95104 102.91182,81.51296 l 35.70811,27.27517 0.609,-46.143 c 0.902,-68.399 1.008,-273.652 0.141,-273.583 -0.413,0.034 -16.299,12.296 -35.304,27.25"
   stroke="none"
   fill="#8828e4"
   fill-rule="evenodd"
   id="path1-1"
   style="fill:url(#linearGradient531);filter:url(#filter625)"
   sodipodi:nodetypes="ccccccscsccccccccccccccccccccccscsccscccsccccssssccccccssscccscccccc" /></svg>
