<?xml version="1.0" encoding="UTF-8" standalone="no"?>
<!-- Created with Inkscape (http://www.inkscape.org/) -->

<svg
   width="113.24167mm"
   height="113.24167mm"
   viewBox="0 0 113.24167 113.24167"
   version="1.1"
   id="svg1"
   xml:space="preserve"
   sodipodi:docname="drawing-1.svg"
   inkscape:version="1.3.2 (091e20e, 2023-11-25, custom)"
   xmlns:inkscape="http://www.inkscape.org/namespaces/inkscape"
   xmlns:sodipodi="http://sodipodi.sourceforge.net/DTD/sodipodi-0.dtd"
   xmlns="http://www.w3.org/2000/svg"
   xmlns:svg="http://www.w3.org/2000/svg"><sodipodi:namedview
     id="namedview1"
     pagecolor="#ffffff"
     bordercolor="#000000"
     borderopacity="0.25"
     inkscape:showpageshadow="2"
     inkscape:pageopacity="0.0"
     inkscape:pagecheckerboard="true"
     inkscape:deskcolor="#d1d1d1"
     inkscape:document-units="mm"
     showborder="false"
     borderlayer="true"
     inkscape:zoom="1.5678606"
     inkscape:cx="408.83738"
     inkscape:cy="319.54372"
     inkscape:window-width="3840"
     inkscape:window-height="2094"
     inkscape:window-x="-4"
     inkscape:window-y="-4"
     inkscape:window-maximized="1"
     inkscape:current-layer="layer1" /><defs
     id="defs1" /><g
     inkscape:label="Layer 1"
     inkscape:groupmode="layer"
     id="layer1"
     transform="translate(-48.455826,-91.957405)"><path
       style="fill:#8b2fda;stroke:none;stroke-width:1.02347"
       d="m 95.520725,91.735591 c -3.624067,-0.124873 -5.734223,0.186662 -9.703242,0.181848 -9.419633,0.929224 -20.080151,1.132474 -27.546889,7.972203 -6.031097,5.524648 -8.119075,14.244108 -8.871278,22.094478 -0.883089,9.21656 -0.806479,18.50283 -0.806479,27.82269 0,6.24683 -0.324421,12.62966 0.268832,18.82122 0.216945,2.26422 0.05202,4.55699 0.268824,6.81928 0.837875,8.74455 3.332756,17.3999 9.94658,23.45834 5.298565,4.85361 13.353853,6.14767 20.162006,6.81928 10.389267,1.02488 20.920941,0.81831 31.452711,0.81831 4.65732,0 9.36806,0.1821 13.97898,-0.27277 2.12068,-0.20921 4.34288,0.29722 6.45184,0 0.49784,-0.0702 0.8677,-0.37922 1.34414,-0.50009 1.89898,-0.48171 3.97214,-0.51679 5.91417,-0.95469 3.51027,-0.7915 6.78988,-2.08284 9.9466,-3.77333 6.76369,-3.62212 10.07236,-10.75778 11.64915,-17.95746 2.14805,-9.80806 1.79217,-19.94412 1.79217,-30.00484 0,-7.41011 0.43528,-15.0187 -0.26883,-22.36725 -0.23421,-2.4444 -0.0348,-4.92222 -0.26881,-7.36483 -0.65719,-6.85876 -2.03933,-14.11971 -6.0038,-19.91231 -6.72631,-9.828005 -19.1563,-10.684113 -29.75015,-11.729174 -2.57431,-0.253953 -5.22165,0.253954 -7.79597,0 -4.34778,-0.428904 -8.57055,-0.143738 -12.96156,-0.01964 -2.23908,0.06328 -2.70021,0.10517 -5.233268,0.02765 m 22.496058,19.131452 c 2.14231,-0.36229 4.08403,0.88998 5.91418,1.81848 3.29408,1.67121 6.65277,3.2388 9.94659,4.90989 1.62817,0.82602 3.72147,1.49535 4.57005,3.31871 1.00583,2.16125 0.48507,4.83513 0.26883,7.09206 -0.17055,1.78002 0,3.66578 0,5.45542 v 30.27763 9.00145 c 0,1.47875 0.24675,3.08727 -0.62727,4.36434 -1.18966,1.73825 -3.00972,2.16341 -4.74927,3.04594 -3.37142,1.71044 -6.7671,3.40028 -10.21541,4.95535 -1.1529,0.51993 -2.19951,1.39967 -3.49474,1.54571 -2.48308,0.27994 -3.63637,-0.86091 -5.37654,-2.45494 -1.69493,-1.55262 -3.48962,-2.9953 -5.1077,-4.63712 -5.53611,-5.61735 -11.66141,-10.76927 -17.473733,-16.09351 -1.263432,-1.15733 -2.561948,-2.32678 -3.763576,-3.54603 -0.606289,-0.61518 -1.290255,-1.56386 -2.150606,-1.81847 -1.352345,-0.40022 -2.625868,0.95128 -3.484287,1.61735 -0.530067,0.41129 -1.074043,0.92263 -1.623425,1.38312 -2.068906,1.73419 -4.096948,3.64608 -6.183004,5.40998 -1.679907,1.42046 -3.516821,2.72732 -5.645369,1.22748 -1.056964,-0.74478 -1.971388,-1.8349 -2.957086,-2.68227 -0.541162,-0.4652 -1.116269,-0.99636 -1.523355,-1.59116 -2.080002,-3.03916 1.455016,-5.3057 3.405138,-7.09205 1.531707,-1.40308 2.962125,-2.95914 4.570055,-4.27343 0.863389,-0.70571 1.63324,-1.47535 2.41944,-2.27308 0.263885,-0.26777 0.806479,-0.65652 0.806479,-1.0911 0,-0.69106 -2.183078,-2.23647 -2.688262,-2.72771 -2.185273,-2.12494 -4.469793,-4.21189 -6.720672,-6.27374 -1.512849,-1.38581 -3.23361,-2.89394 -2.105808,-5.18265 0.59302,-1.20345 1.695278,-1.85915 2.643465,-2.72772 1.61303,-1.47758 3.220381,-3.48017 5.645358,-2.45494 0.927612,0.39218 1.613427,1.14825 2.41944,1.72755 2.248196,1.61585 4.634188,3.26868 6.720661,5.09174 1.030161,0.90009 2.141218,1.7102 3.225919,2.54586 0.304111,0.23429 0.662162,0.64229 1.075313,0.63647 0.856093,-0.0121 1.846537,-1.53416 2.41944,-2.09125 1.920148,-1.86715 4.030438,-3.54405 5.914181,-5.45543 2.725584,-2.76558 5.742004,-5.29012 8.602454,-7.91036 2.78502,-2.55115 5.41264,-5.34098 8.33363,-7.72853 2.1682,-1.77224 4.07038,-4.82539 6.98949,-5.31904 m 1.88178,55.05435 0.26884,-8.72868 v -17.45737 l -0.26884,-7.91037 -5.64536,4.00065 -11.29071,8.72868 -3.76357,2.90956 -1.25453,1.27293 1.25453,1.40933 3.76357,2.90956 11.55955,8.86506 z"
       id="path3"
       sodipodi:nodetypes="ccccsscssssccssssscssssccssssscsssscsssssscssscsssssssssccscssssccccccccccccc" /></g></svg>
