<?xml version="1.0" encoding="utf-8" ?>
<svg xmlns="http://www.w3.org/2000/svg" xmlns:xlink="http://www.w3.org/1999/xlink" width="1464" height="1464">
	<defs>
		<linearGradient id="gradient_0" gradientUnits="userSpaceOnUse" x1="228.16681" y1="427.56607" x2="206.66107" y2="91.853836">
			<stop offset="0" stop-color="#5614B9"/>
			<stop offset="1" stop-color="#B543F4"/>
		</linearGradient>
	</defs>
	<path fill="url(#gradient_0)" transform="matrix(3.42056 0 0 3.42056 0 -3.05176e-05)" d="M9.75692 94.3792C14.7056 67.5937 25.3469 42.1282 48.4912 26.1815C61.4248 17.2701 77.0851 11.5937 92.4081 8.55657C99.8773 7.07612 107.391 6.18791 114.943 5.31516C118.329 4.92387 121.725 4.32807 125.124 4.08845C128.271 3.8665 131.442 3.97582 134.592 3.7969C137.729 3.61875 140.827 3.0763 143.974 2.97932C155.262 2.63138 166.603 3.08445 177.9 2.93253C181.322 2.88651 184.665 2.00934 188.076 1.9527C200.12 1.75269 212.197 1.92803 224.243 1.92565C234.061 1.92371 243.939 1.69277 253.752 1.94736C257.192 2.03661 260.58 2.81327 264.029 2.90563C271.785 3.11336 279.57 2.71227 287.321 2.98761C289.753 3.07399 292.171 3.45444 294.594 3.66264L308.129 4.70663C314.822 5.2436 321.333 5.51097 327.967 6.772C333.224 7.77134 339.193 8.76809 344.304 10.1362C352.174 12.243 359.78 15.3274 367.079 18.8906C370.747 20.6814 374.667 22.3056 378.16 24.413C387.117 29.8179 396.486 39.5988 402.279 48.2498C404.136 51.0227 405.719 54.0721 407.274 57.0236C413.922 69.643 417.04 80.5004 419.659 94.3985C420.695 99.895 421.648 105.118 422.073 110.709C422.423 112.548 422.767 114.356 422.898 116.227L423.369 122.051C424.261 129.71 424.178 137.401 424.531 145.078C424.676 148.23 425.319 151.348 425.428 154.499C425.645 160.834 425.469 167.242 425.47 173.584L425.47 209.568L425.467 250.472C425.468 259.78 425.725 269.18 425.398 278.476C425.269 282.157 424.696 285.797 424.529 289.468C424.35 293.394 424.497 297.33 424.232 301.252C423.963 305.234 423.378 309.226 422.918 313.191C420.847 331.049 417.403 348.128 410.047 364.632C407.374 370.628 404.303 376.772 400.198 381.928C380.854 406.224 357.701 414.263 328.218 419.609L316.38 421.634C314.228 422.016 312.089 422.595 309.917 422.845C303.86 423.544 297.521 422.962 291.42 423.178C287.078 423.331 282.756 423.962 278.413 424.08C262.033 424.523 245.553 424.2 229.162 424.2L184.455 424.182C173.283 424.173 162.047 424.406 150.884 424.036C147.541 423.925 144.231 423.382 140.894 423.204C138.267 423.064 135.628 423.099 133.005 422.919C121.919 422.085 110.875 420.773 99.9029 418.986C95.7989 418.301 91.6144 417.679 87.5732 416.682C84.9175 416.026 82.2938 415.11 79.6797 414.303C71.442 411.759 63.7582 408.948 56.175 404.789C52.693 402.88 48.9704 400.827 45.8718 398.344C18.9702 376.784 9.82274 345.297 6.40489 312.276C5.55527 304.067 5.19873 295.912 4.82892 287.684C4.65413 283.794 4.11608 279.922 3.99289 276.03C3.77198 269.051 3.94354 262.02 3.94106 255.036L3.93637 214.939L3.93129 178.887C3.93154 172.225 3.77503 165.516 3.99605 158.859C4.1157 155.255 4.70585 151.681 4.87008 148.082C5.04035 144.35 4.70966 140.553 4.98507 136.837C5.79626 138.988 5.31097 143.968 5.57492 146.584L5.6787 146.629C5.64773 143.208 6.48711 133.601 5.6965 130.93L5.21951 130.724C5.20523 127.509 5.80547 124.085 6.03904 120.854C5.93599 119.572 6.20711 118.108 6.32989 116.822C6.52025 115.86 6.55262 114.828 6.64696 113.849C6.92033 112.249 7.06575 110.612 7.26065 109C7.60991 103.995 8.54018 99.2371 9.75692 94.3792Z"/>
	<path fill="#F6F4F8" transform="matrix(3.42056 0 0 3.42056 0 -3.05176e-05)" d="M232.047 110.411C236.033 107.449 239.716 103.587 243.368 100.212L260.927 84.223C263.8 81.6066 266.598 78.7212 269.761 76.4632C273.327 73.9173 278.361 72.4929 282.716 73.2712C288.081 74.2299 303.641 82.6661 309.446 85.4209C317.136 89.0526 324.806 92.7274 332.455 96.445C337.031 98.6442 341.873 100.664 346.184 103.337C348.614 104.844 350.572 106.616 352.189 108.973C352.936 110.264 353.529 111.565 354.096 112.944C355.397 119.899 354.679 131.058 354.665 138.528L354.656 184.384L354.653 267.782L354.643 293.746C354.645 298.677 354.846 303.695 354.562 308.617C354.403 311.38 353.638 314.127 352.063 316.433C350.471 318.763 347.989 320.662 345.583 322.082C342.793 323.728 339.773 325.049 336.853 326.448L323.196 333.011L302.124 343.121C296.5 345.842 288.456 350.603 282.583 351.649C278.26 352.418 274.044 351.842 270.43 349.24C265.945 346.01 260.177 340.22 255.976 336.353C248.175 329.105 240.31 321.927 232.381 314.82L184.35 270.904C175.37 262.728 166.245 254.699 157.375 246.404C157.073 246.436 156.848 246.449 156.575 246.595C155.064 247.402 153.487 248.89 152.095 249.948C148.891 252.381 145.68 254.784 142.506 257.258C136.8 261.704 130.916 265.92 125.202 270.363C120.75 273.824 109.308 283.446 104.53 284.601C100.381 285.603 96.8409 284.289 93.622 281.662C90.9829 279.509 88.5542 277.037 86.0569 274.722C84.6113 273.382 82.861 272.081 81.5863 270.589C80.8051 270.128 80.0203 269.319 79.3598 268.695C76.7419 266.221 74.8188 263.133 74.7604 259.443C74.7246 257.18 75.3536 254.676 76.6489 252.808C79.2352 249.077 84.9319 244.724 88.4763 241.525L108.544 223.289C112.461 219.721 116.598 216.248 120.249 212.412C120.134 212.334 120.018 212.257 119.903 212.177C117.365 210.41 115.081 207.939 112.827 205.818C109.536 202.739 106.223 199.684 102.888 196.653L86.2891 181.625C83.6638 179.223 80.7636 176.863 78.4147 174.191C76.8025 172.357 75.4063 170.288 75.0026 167.835C74.529 164.956 75.0764 161.657 76.7994 159.269C79.0785 156.11 92.4904 144.05 95.8596 141.911C97.2109 141.054 98.6798 140.521 100.262 140.283C102.443 139.954 104.71 140.203 106.693 141.189C111.678 143.668 118.941 149.991 123.716 153.635C134.852 162.15 146.03 170.608 157.251 179.01C162.106 173.871 167.635 169.259 172.855 164.496L202.504 137.417C206.313 133.904 210.425 130.563 213.99 126.806C213.935 126.483 213.94 126.676 214.06 126.233C215.077 125.305 216.105 124.377 216.984 123.312C218.872 121.023 220.006 118.646 222.79 117.266C223.123 117.101 223.117 116.989 223.294 116.674C223.499 116.783 223.673 116.9 223.863 117.034C226.328 115.982 229.343 111.734 231.846 110.007L232.047 110.411Z"/>
	<path fill="#F6F4F8" transform="matrix(3.42056 0 0 3.42056 0 -3.05176e-05)" d="M352.189 108.973C352.936 110.264 353.529 111.565 354.096 112.944C355.397 119.899 354.679 131.058 354.665 138.528L354.656 184.384L354.653 267.782L354.643 293.746C354.645 298.677 354.846 303.695 354.562 308.617C354.403 311.38 353.638 314.127 352.063 316.433C350.471 318.763 347.989 320.662 345.583 322.082C342.793 323.728 339.773 325.049 336.853 326.448L323.196 333.011L302.124 343.121C296.5 345.842 288.456 350.603 282.583 351.649C278.26 352.418 274.044 351.842 270.43 349.24C265.945 346.01 260.177 340.22 255.976 336.353C248.175 329.105 240.31 321.927 232.381 314.82L184.35 270.904C175.37 262.728 166.245 254.699 157.375 246.404C157.106 246.104 156.95 245.619 156.779 245.251C157.64 245.947 158.703 246.037 159.492 246.64C160.579 247.472 161.125 249.156 162.145 250.117C162.75 250.686 163.524 251.069 164.157 251.613C165.838 253.057 167.388 254.657 169.061 256.113C170.893 257.708 172.841 259.175 174.65 260.792C176.274 262.242 177.687 263.93 179.289 265.412L193.868 278.749L243.097 323.414C251.694 331.255 260.025 339.376 268.751 347.077C270.013 348.191 272.228 350.141 273.768 350.778C274.797 351.205 279.313 351.488 280.559 351.394C282.898 351.219 285.3 350.504 287.465 349.623C293.379 347.219 298.846 343.868 304.552 341.089C305.398 340.676 306.397 340.632 307.267 340.226C314.811 336.706 322.274 332.918 329.774 329.296C334.97 326.787 340.518 324.492 345.465 321.526C347.275 320.441 348.954 319.09 350.307 317.461C351.089 316.518 352.103 315.361 352.61 314.264C354.289 310.628 354.424 305.579 354.094 301.646L353.851 302.488L353.515 302.437C353.816 301.664 353.332 298.328 353.333 297.217L353.442 255.825L353.37 155.97C353.372 153.245 353.694 150.513 353.665 147.804C353.632 144.786 353.351 141.777 353.429 138.754C353.507 135.716 353.88 132.68 353.862 129.638C353.848 127.175 353.403 124.735 353.369 122.272C353.33 119.53 353.887 116.456 353.623 113.786C353.467 112.203 352.207 110.922 352.184 109.186C352.183 109.115 352.188 109.044 352.189 108.973Z"/>
	<path fill="#F6F4F8" transform="matrix(3.42056 0 0 3.42056 0 -3.05176e-05)" d="M81.5863 270.589C82.3151 270.435 84.1407 271.915 84.7408 272.504C88.4554 276.148 92.7398 281.245 97.5375 283.404C99.8696 284.454 101.943 284.96 104.443 283.965C104.809 283.82 105.155 283.673 105.533 283.559C106.546 283.252 107.529 282.866 108.439 282.318C109.294 281.802 110.016 280.963 110.82 280.352C113.426 278.371 116.94 276.508 119.146 274.146C121.076 272.079 122.544 269.547 124.298 267.33C125.864 265.352 127.702 263.574 129.372 261.683C132.214 258.465 134.714 255.2 137.934 252.303C141.082 249.469 145.039 246.287 148.788 244.361C150.08 243.698 151.713 243.729 152.847 243.009L152.707 242.717C152.567 242.686 152.428 242.651 152.29 242.614C151.638 242.437 150.214 241.977 149.89 241.403C150.444 241.276 150.841 241.296 151.376 241.468C152.862 241.945 156.084 243.847 156.779 245.251C156.95 245.619 157.106 246.104 157.375 246.404C157.073 246.436 156.848 246.449 156.575 246.595C155.064 247.402 153.487 248.89 152.095 249.948C148.891 252.381 145.68 254.784 142.506 257.258C136.8 261.704 130.916 265.92 125.202 270.363C120.75 273.824 109.308 283.446 104.53 284.601C100.381 285.603 96.8409 284.289 93.622 281.662C90.9829 279.509 88.5542 277.037 86.0569 274.722C84.6113 273.382 82.861 272.081 81.5863 270.589Z"/>
	<path fill="#A53AF2" transform="matrix(3.42056 0 0 3.42056 0 -3.05176e-05)" d="M223.863 117.034C226.328 115.982 229.343 111.734 231.846 110.007L232.047 110.411C229.814 112.657 215.957 125.766 213.99 126.806C213.935 126.483 213.94 126.676 214.06 126.233C215.077 125.305 216.105 124.377 216.984 123.312C218.872 121.023 220.006 118.646 222.79 117.266C223.123 117.101 223.117 116.989 223.294 116.674C223.499 116.783 223.673 116.9 223.863 117.034Z"/>
	<defs>
		<linearGradient id="gradient_1" gradientUnits="userSpaceOnUse" x1="239.58508" y1="157.90344" x2="258.53085" y2="277.73715">
			<stop offset="0" stop-color="#652495"/>
			<stop offset="1" stop-color="#7F29D6"/>
		</linearGradient>
	</defs>
	<path fill="url(#gradient_1)" transform="matrix(3.42056 0 0 3.42056 0 -3.05176e-05)" d="M284.222 149.747C284.526 150.201 284.53 150.686 284.547 151.223C284.767 158.102 284.609 165.046 284.584 171.932L284.597 201.093C284.64 225.948 285.005 250.873 284.51 275.721C268.869 264.122 253.477 252.139 238.006 240.313C225.876 230.974 213.387 222.053 201.416 212.512C218.3 199.207 235.721 186.468 252.858 173.481L273.167 158.112C276.845 155.308 280.369 152.315 284.222 149.747Z"/>
	<path fill="#AF40F0" transform="matrix(3.42056 0 0 3.42056 0 -3.05176e-05)" d="M9.75692 94.3792C14.7056 67.5937 25.3469 42.1282 48.4912 26.1815C61.4248 17.2701 77.0851 11.5937 92.4081 8.55657C99.8773 7.07612 107.391 6.18791 114.943 5.31516C118.329 4.92387 121.725 4.32807 125.124 4.08845C128.271 3.8665 131.442 3.97582 134.592 3.7969C137.729 3.61875 140.827 3.0763 143.974 2.97932C155.262 2.63138 166.603 3.08445 177.9 2.93253C181.322 2.88651 184.665 2.00934 188.076 1.9527C200.12 1.75269 212.197 1.92803 224.243 1.92565C234.061 1.92371 243.939 1.69277 253.752 1.94736C257.192 2.03661 260.58 2.81327 264.029 2.90563C271.785 3.11336 279.57 2.71227 287.321 2.98761C289.753 3.07399 292.171 3.45444 294.594 3.66264L308.129 4.70663C314.822 5.2436 321.333 5.51097 327.967 6.772C333.224 7.77134 339.193 8.76809 344.304 10.1362C352.174 12.243 359.78 15.3274 367.079 18.8906C370.747 20.6814 374.667 22.3056 378.16 24.413C387.117 29.8179 396.486 39.5988 402.279 48.2498C404.136 51.0227 405.719 54.0721 407.274 57.0236C413.922 69.643 417.04 80.5004 419.659 94.3985C420.695 99.895 421.648 105.118 422.073 110.709C421.849 111.455 421.674 111.966 421.245 112.617C420.796 113.297 420.463 115.892 419.898 116.141L419.662 115.926L419.587 116.394L419.883 116.563L419.598 117.006L419.077 116.826L418.805 115.844C416.969 115.586 414.363 118.112 412.326 118.265C409.497 118.478 406.541 117.65 403.706 117.613C397.079 117.527 378.839 119.533 374.027 115.585C372.325 114.188 366.066 114.467 363.592 113.954C362.706 113.77 361.726 113.106 360.925 113.015C360.21 112.933 359.627 113.084 358.914 112.849C357.931 112.524 357.027 111.991 355.998 111.834L355.748 112.166C355.769 112.242 355.798 112.317 355.812 112.396C355.887 112.804 355.762 113.057 355.625 113.433L354.958 112.883L354.855 112.901L354.312 112.556L354.096 112.944C353.529 111.565 352.936 110.264 352.189 108.973C350.572 106.616 348.614 104.844 346.184 103.337C341.873 100.664 337.031 98.6442 332.455 96.445C324.806 92.7274 317.136 89.0526 309.446 85.4209C303.641 82.6661 288.081 74.2299 282.716 73.2712C278.361 72.4929 273.327 73.9173 269.761 76.4632C266.598 78.7212 263.8 81.6066 260.927 84.223L243.368 100.212C239.716 103.587 236.033 107.449 232.047 110.411L231.846 110.007C229.343 111.734 226.328 115.982 223.863 117.034C224.021 116.284 224.173 115.846 224.702 115.281C224.994 114.969 225.268 114.645 225.549 114.323C225.558 113.828 225.401 113.61 225.141 113.201C224.171 113.323 223.691 114.65 222.63 114.993C221.69 114.555 221.752 113.8 221.018 113.122C220.565 113.484 220.5 113.539 220.306 114.08L220.901 114.985C220.797 115.787 220.606 115.904 220.09 116.501C219.786 116.437 219.693 116.371 219.479 116.141C219.212 115.856 218.851 115.349 218.483 115.201C217.25 114.705 214.627 115.786 213.112 115.462C212.006 115.225 211.075 114.088 209.989 113.91C208.21 113.619 207.427 115.016 205.374 114.02C199.125 114.633 159.059 113.536 158.055 114.129C157.935 114.2 157.822 114.284 157.706 114.362C153.727 113.932 149.623 114.076 145.625 114.072L123.275 114.237L72.4622 114.094C67.5756 114.102 62.6983 113.969 57.8376 113.437C54.352 113.055 51.1637 112.212 47.6119 112.268C42.9471 112.341 38.6774 113.871 34.1273 114.475C30.428 114.966 25.4656 114.643 21.7396 114.238C20.9915 114.157 19.8668 114.401 19.191 114.148C15.8072 112.884 14.5146 110.183 13.0154 107.19L12.3016 107.15C11.456 106.174 10.4066 105.337 9.44014 104.479L9.16948 104.63L9.29037 105.24C9.08963 105.186 8.88928 105.151 8.68492 105.113C7.70655 103.933 10.0282 96.8343 9.79248 94.6682C9.78198 94.5717 9.76877 94.4755 9.75692 94.3792Z"/>
	<path fill="#A53AF2" transform="matrix(3.42056 0 0 3.42056 0 -3.05176e-05)" d="M6.32989 116.822C6.38713 116.897 6.43839 116.978 6.50159 117.048C6.83317 117.419 7.14795 117.506 7.59889 117.683C8.09447 118.544 8.2215 119.25 7.95424 120.225C7.52691 121.784 6.91961 122.959 6.79219 124.617C6.44353 124.398 6.43505 124.041 6.35095 123.644C6.15278 122.711 6.30918 121.783 6.03904 120.854C5.93599 119.572 6.20711 118.108 6.32989 116.822Z"/>
	<path fill="#A53AF2" transform="matrix(3.42056 0 0 3.42056 0 -3.05176e-05)" d="M423.369 122.051L423.154 122.562C422.433 122.123 422.264 119.96 421.439 119.234C421.341 119.148 421.222 119.086 421.117 119.008C420.631 118.642 420.075 118.359 419.993 117.75C420.695 117.415 421.359 117.154 422.112 116.953C422.477 116.856 422.657 116.513 422.898 116.227L423.369 122.051Z"/>
	<path fill="#A53AF2" transform="matrix(3.42056 0 0 3.42056 0 -3.05176e-05)" d="M7.26065 109C7.33523 109.088 7.40884 109.177 7.48439 109.264C7.76867 109.593 8.06338 109.792 8.42598 110.026C8.82029 111.261 8.63091 111.918 8.13397 113.087C7.94289 113.536 7.90731 113.845 7.89949 114.333L7.61402 114.474C7.54455 114.398 7.47862 114.319 7.40562 114.247C7.12942 113.974 7.0112 113.928 6.64696 113.849C6.92033 112.249 7.06575 110.612 7.26065 109Z"/>
	<path fill="#A53AF2" fill-opacity="0.98823529" transform="matrix(3.42056 0 0 3.42056 0 -3.05176e-05)" d="M5.21951 130.724L5.6965 130.93C6.48711 133.601 5.64773 143.208 5.6787 146.629L5.57492 146.584C5.31097 143.968 5.79626 138.988 4.98507 136.837C4.81275 134.842 4.8962 132.701 5.21951 130.724Z"/>
</svg>
